<svg xmlns="http://www.w3.org/2000/svg" viewBox="0 0 100 100"><g fill="none" stroke="#10b39a" stroke-width="5" stroke-linecap="round" stroke-opacity="0.32"><line x1="50" y1="5" x2="50" y2="16" transform="rotate(0 50 50)"/><line x1="50" y1="5" x2="50" y2="16" transform="rotate(30 50 50)"/><line x1="50" y1="5" x2="50" y2="16" transform="rotate(60 50 50)"/><line x1="50" y1="5" x2="50" y2="16" transform="rotate(90 50 50)"/><line x1="50" y1="5" x2="50" y2="16" transform="rotate(120 50 50)"/><line x1="50" y1="5" x2="50" y2="16" transform="rotate(150 50 50)"/><line x1="50" y1="5" x2="50" y2="16" transform="rotate(180 50 50)"/><line x1="50" y1="5" x2="50" y2="16" transform="rotate(210 50 50)"/><line x1="50" y1="5" x2="50" y2="16" transform="rotate(240 50 50)"/><line x1="50" y1="5" x2="50" y2="16" transform="rotate(270 50 50)"/><line x1="50" y1="5" x2="50" y2="16" transform="rotate(300 50 50)"/><line x1="50" y1="5" x2="50" y2="16" transform="rotate(330 50 50)"/><circle cx="50" cy="50" r="21" stroke-opacity="0.32"/></g><circle cx="50" cy="50" r="9" fill="#10b39a" fill-opacity="0.32"/></svg>