<svg xmlns="http://www.w3.org/2000/svg" width="150" height="150" viewBox="0 0 150 150">
  <g fill="#2E9E50" fill-opacity="0.09" stroke="none">
    <g transform="translate(20,18)">
      <rect x="0" y="0" width="8" height="40" rx="4"/><rect x="0" y="16" width="8" height="3.5" fill="#1d6e36"/>
      <rect x="13" y="-4" width="8" height="40" rx="4"/><rect x="13" y="12" width="8" height="3.5" fill="#1d6e36"/>
      <rect x="26" y="0" width="8" height="40" rx="4"/><rect x="26" y="16" width="8" height="3.5" fill="#1d6e36"/>
    </g>
    <g transform="translate(95,82)">
      <rect x="0" y="0" width="8" height="40" rx="4"/><rect x="0" y="16" width="8" height="3.5" fill="#1d6e36"/>
      <rect x="13" y="-4" width="8" height="40" rx="4"/><rect x="13" y="12" width="8" height="3.5" fill="#1d6e36"/>
      <rect x="26" y="0" width="8" height="40" rx="4"/><rect x="26" y="16" width="8" height="3.5" fill="#1d6e36"/>
    </g>
  </g>
</svg>
