<svg xmlns="http://www.w3.org/2000/svg" viewBox="0 0 440 792" preserveAspectRatio="xMidYMid slice"><defs><filter id="rough_bam" x="-25%" y="-25%" width="150%" height="150%"><feTurbulence type="fractalNoise" baseFrequency="0.016" numOctaves="3" seed="11" result="n"/><feDisplacementMap in="SourceGraphic" in2="n" scale="11" xChannelSelector="R" yChannelSelector="G"/></filter><filter id="roughBig_bam" x="-30%" y="-30%" width="160%" height="160%"><feTurbulence type="fractalNoise" baseFrequency="0.009" numOctaves="2" seed="16" result="n"/><feDisplacementMap in="SourceGraphic" in2="n" scale="20" xChannelSelector="R" yChannelSelector="G"/></filter><filter id="ink_bam"><feTurbulence type="fractalNoise" baseFrequency="0.7 0.9" numOctaves="2" seed="13" result="n"/><feColorMatrix in="n" type="matrix" values="0 0 0 0 0  0 0 0 0 0  0 0 0 0 0  0 0 0 0.5 0" result="a"/><feComposite in="a" in2="SourceAlpha" operator="in"/></filter><filter id="paper_bam"><feTurbulence type="fractalNoise" baseFrequency="0.5" numOctaves="3" seed="20"/><feColorMatrix type="saturate" values="0"/><feComponentTransfer><feFuncA type="table" tableValues="0 0.7"/></feComponentTransfer></filter></defs><rect width="440" height="792" fill="#1AA45C"/><g filter="url(#rough_bam)"><rect x="95" y="-20" width="28" height="295" rx="14" fill="#0C3A24"/><rect x="89" y="80" width="40" height="9" rx="4" fill="#0C3A24"/><rect x="89" y="160" width="40" height="9" rx="4" fill="#0C3A24"/><rect x="220" y="-20" width="22" height="295" rx="11" fill="#0F4A2E"/><rect x="214" y="80" width="34" height="9" rx="4" fill="#0F4A2E"/><rect x="214" y="160" width="34" height="9" rx="4" fill="#0F4A2E"/><rect x="342" y="-20" width="30" height="295" rx="15" fill="#0C3A24"/><rect x="336" y="80" width="42" height="9" rx="4" fill="#0C3A24"/><rect x="336" y="160" width="42" height="9" rx="4" fill="#0C3A24"/></g><g filter="url(#rough_bam)"><ellipse cx="152" cy="72" rx="60" ry="20" transform="rotate(-32 152 72)" fill="#C2F06A"/><ellipse cx="284" cy="120" rx="56" ry="19" transform="rotate(24 284 120)" fill="#A6E04E"/><ellipse cx="106" cy="150" rx="54" ry="18" transform="rotate(-20 106 150)" fill="#C2F06A"/><ellipse cx="372" cy="90" rx="50" ry="17" transform="rotate(34 372 90)" fill="#A6E04E"/></g><rect width="440" height="792" filter="url(#paper_bam)" opacity="0.08" style="mix-blend-mode:multiply"/></svg>