<svg xmlns="http://www.w3.org/2000/svg" viewBox="0 0 440 792" preserveAspectRatio="xMidYMid slice">
<defs>
  <filter id="rough_bam" x="-25%" y="-25%" width="150%" height="150%">
    <feTurbulence type="fractalNoise" baseFrequency="0.016" numOctaves="3" seed="11" result="n"/>
    <feDisplacementMap in="SourceGraphic" in2="n" scale="11" xChannelSelector="R" yChannelSelector="G"/></filter>
  <filter id="roughBig_bam" x="-30%" y="-30%" width="160%" height="160%">
    <feTurbulence type="fractalNoise" baseFrequency="0.009" numOctaves="2" seed="16" result="n"/>
    <feDisplacementMap in="SourceGraphic" in2="n" scale="20" xChannelSelector="R" yChannelSelector="G"/></filter>
  <filter id="ink_bam">
    <feTurbulence type="fractalNoise" baseFrequency="0.7 0.9" numOctaves="2" seed="13" result="n"/>
    <feColorMatrix in="n" type="matrix" values="0 0 0 0 0  0 0 0 0 0  0 0 0 0 0  0 0 0 0.5 0" result="a"/>
    <feComposite in="a" in2="SourceAlpha" operator="in"/></filter>
  <filter id="paper_bam">
    <feTurbulence type="fractalNoise" baseFrequency="0.5" numOctaves="3" seed="20"/>
    <feColorMatrix type="saturate" values="0"/>
    <feComponentTransfer><feFuncA type="table" tableValues="0 0.7"/></feComponentTransfer></filter></defs><rect width="440" height="792" fill="#1AA45C"/><g filter="url(#rough_bam)"><rect x="70" y="-20" width="30" height="832" rx="15" fill="#0C3A24"/><rect x="64" y="200" width="42" height="9" rx="4" fill="#0C3A24"/><rect x="64" y="430" width="42" height="9" rx="4" fill="#0C3A24"/><rect x="64" y="650" width="42" height="9" rx="4" fill="#0C3A24"/><rect x="150" y="-20" width="22" height="832" rx="11" fill="#0F4A2E"/><rect x="144" y="200" width="34" height="9" rx="4" fill="#0F4A2E"/><rect x="144" y="430" width="34" height="9" rx="4" fill="#0F4A2E"/><rect x="144" y="650" width="34" height="9" rx="4" fill="#0F4A2E"/><rect x="330" y="-20" width="34" height="832" rx="17" fill="#0C3A24"/><rect x="324" y="200" width="46" height="9" rx="4" fill="#0C3A24"/><rect x="324" y="430" width="46" height="9" rx="4" fill="#0C3A24"/><rect x="324" y="650" width="46" height="9" rx="4" fill="#0C3A24"/></g>
      <g filter="url(#rough_bam)" opacity="0.95"><g transform="translate(8,6)" opacity="0.7" fill="#0C3A24"><ellipse cx="250" cy="170" rx="70" ry="22" transform="rotate(-30 250 170)" fill="undefined"/><ellipse cx="300" cy="300" rx="60" ry="20" transform="rotate(20 300 300)" fill="undefined"/><ellipse cx="210" cy="470" rx="66" ry="21" transform="rotate(-18 210 470)" fill="undefined"/></g><ellipse cx="250" cy="170" rx="70" ry="22" transform="rotate(-30 250 170)" fill="#C2F06A"/><ellipse cx="300" cy="300" rx="60" ry="20" transform="rotate(20 300 300)" fill="#A6E04E"/><ellipse cx="210" cy="470" rx="66" ry="21" transform="rotate(-18 210 470)" fill="#C2F06A"/><ellipse cx="360" cy="560" rx="54" ry="18" transform="rotate(34 360 560)" fill="#A6E04E"/><ellipse cx="130" cy="610" rx="58" ry="19" transform="rotate(-40 130 610)" fill="#C2F06A"/></g><rect width="440" height="792" filter="url(#paper_bam)" opacity="0.1" style="mix-blend-mode:multiply"/></svg>