<svg xmlns="http://www.w3.org/2000/svg" viewBox="0 0 440 792" preserveAspectRatio="xMidYMid slice"><defs><filter id="rough_dragon" x="-25%" y="-25%" width="150%" height="150%"><feTurbulence type="fractalNoise" baseFrequency="0.016" numOctaves="3" seed="13" result="n"/><feDisplacementMap in="SourceGraphic" in2="n" scale="11" xChannelSelector="R" yChannelSelector="G"/></filter><filter id="roughBig_dragon" x="-30%" y="-30%" width="160%" height="160%"><feTurbulence type="fractalNoise" baseFrequency="0.009" numOctaves="2" seed="18" result="n"/><feDisplacementMap in="SourceGraphic" in2="n" scale="20" xChannelSelector="R" yChannelSelector="G"/></filter><filter id="ink_dragon"><feTurbulence type="fractalNoise" baseFrequency="0.7 0.9" numOctaves="2" seed="15" result="n"/><feColorMatrix in="n" type="matrix" values="0 0 0 0 0  0 0 0 0 0  0 0 0 0 0  0 0 0 0.5 0" result="a"/><feComposite in="a" in2="SourceAlpha" operator="in"/></filter><filter id="paper_dragon"><feTurbulence type="fractalNoise" baseFrequency="0.5" numOctaves="3" seed="22"/><feColorMatrix type="saturate" values="0"/><feComponentTransfer><feFuncA type="table" tableValues="0 0.7"/></feComponentTransfer></filter></defs><rect width="440" height="792" fill="#0E4031"/><g filter="url(#rough_dragon)"><line x1="346.0" y1="106.0" x2="450.0" y2="106.0" stroke="#E8C45A" stroke-width="5" opacity="0.55"/><line x1="344.9" y1="115.8" x2="415.1" y2="131.8" stroke="#E8C45A" stroke-width="2" opacity="0.3"/><line x1="341.6" y1="125.1" x2="435.3" y2="170.2" stroke="#E8C45A" stroke-width="5" opacity="0.55"/><line x1="336.4" y1="133.4" x2="392.7" y2="178.3" stroke="#E8C45A" stroke-width="2" opacity="0.3"/><line x1="329.4" y1="140.4" x2="394.3" y2="221.7" stroke="#E8C45A" stroke-width="5" opacity="0.55"/><line x1="321.1" y1="145.6" x2="352.3" y2="210.5" stroke="#E8C45A" stroke-width="2" opacity="0.3"/><line x1="311.8" y1="148.9" x2="334.9" y2="250.3" stroke="#E8C45A" stroke-width="5" opacity="0.55"/><line x1="302.0" y1="150.0" x2="302.0" y2="222.0" stroke="#E8C45A" stroke-width="2" opacity="0.3"/><line x1="292.2" y1="148.9" x2="269.1" y2="250.3" stroke="#E8C45A" stroke-width="5" opacity="0.55"/><line x1="282.9" y1="145.6" x2="251.7" y2="210.5" stroke="#E8C45A" stroke-width="2" opacity="0.3"/><line x1="274.6" y1="140.4" x2="209.7" y2="221.7" stroke="#E8C45A" stroke-width="5" opacity="0.55"/><line x1="267.6" y1="133.4" x2="211.3" y2="178.3" stroke="#E8C45A" stroke-width="2" opacity="0.3"/><line x1="262.4" y1="125.1" x2="168.7" y2="170.2" stroke="#E8C45A" stroke-width="5" opacity="0.55"/><line x1="259.1" y1="115.8" x2="188.9" y2="131.8" stroke="#E8C45A" stroke-width="2" opacity="0.3"/><line x1="258.0" y1="106.0" x2="154.0" y2="106.0" stroke="#E8C45A" stroke-width="5" opacity="0.55"/><line x1="259.1" y1="96.2" x2="188.9" y2="80.2" stroke="#E8C45A" stroke-width="2" opacity="0.3"/><line x1="262.4" y1="86.9" x2="168.7" y2="41.8" stroke="#E8C45A" stroke-width="5" opacity="0.55"/><line x1="267.6" y1="78.6" x2="211.3" y2="33.7" stroke="#E8C45A" stroke-width="2" opacity="0.3"/><line x1="274.6" y1="71.6" x2="209.7" y2="-9.7" stroke="#E8C45A" stroke-width="5" opacity="0.55"/><line x1="282.9" y1="66.4" x2="251.7" y2="1.5" stroke="#E8C45A" stroke-width="2" opacity="0.3"/><line x1="292.2" y1="63.1" x2="269.1" y2="-38.3" stroke="#E8C45A" stroke-width="5" opacity="0.55"/><line x1="302.0" y1="62.0" x2="302.0" y2="-10.0" stroke="#E8C45A" stroke-width="2" opacity="0.3"/><line x1="311.8" y1="63.1" x2="334.9" y2="-38.3" stroke="#E8C45A" stroke-width="5" opacity="0.55"/><line x1="321.1" y1="66.4" x2="352.3" y2="1.5" stroke="#E8C45A" stroke-width="2" opacity="0.3"/><line x1="329.4" y1="71.6" x2="394.3" y2="-9.7" stroke="#E8C45A" stroke-width="5" opacity="0.55"/><line x1="336.4" y1="78.6" x2="392.7" y2="33.7" stroke="#E8C45A" stroke-width="2" opacity="0.3"/><line x1="341.6" y1="86.9" x2="435.3" y2="41.8" stroke="#E8C45A" stroke-width="5" opacity="0.55"/><line x1="344.9" y1="96.2" x2="415.1" y2="80.2" stroke="#E8C45A" stroke-width="2" opacity="0.3"/></g><g filter="url(#roughBig_dragon)"><circle cx="302" cy="106" r="40" fill="#F4E3A8"/><circle cx="302" cy="106" r="40" fill="none" stroke="#E8C45A" stroke-width="4"/><circle cx="290" cy="94" r="12" fill="#FFFFFF" opacity="0.55"/></g><g filter="url(#rough_dragon)" fill="#C8302C" opacity="0.8"><path d="M124.0,70.0L129.3,82.7L143.0,83.8L132.6,92.8L135.8,106.2L124.0,99.0L112.2,106.2L115.4,92.8L105.0,83.8L118.7,82.7Z"/></g><rect width="440" height="792" filter="url(#paper_dragon)" opacity="0.08" style="mix-blend-mode:multiply"/></svg>