<svg xmlns="http://www.w3.org/2000/svg" viewBox="0 0 440 792" preserveAspectRatio="xMidYMid slice">
<defs>
  <filter id="rough_dragon" x="-25%" y="-25%" width="150%" height="150%">
    <feTurbulence type="fractalNoise" baseFrequency="0.016" numOctaves="3" seed="13" result="n"/>
    <feDisplacementMap in="SourceGraphic" in2="n" scale="11" xChannelSelector="R" yChannelSelector="G"/></filter>
  <filter id="roughBig_dragon" x="-30%" y="-30%" width="160%" height="160%">
    <feTurbulence type="fractalNoise" baseFrequency="0.009" numOctaves="2" seed="18" result="n"/>
    <feDisplacementMap in="SourceGraphic" in2="n" scale="20" xChannelSelector="R" yChannelSelector="G"/></filter>
  <filter id="ink_dragon">
    <feTurbulence type="fractalNoise" baseFrequency="0.7 0.9" numOctaves="2" seed="15" result="n"/>
    <feColorMatrix in="n" type="matrix" values="0 0 0 0 0  0 0 0 0 0  0 0 0 0 0  0 0 0 0.5 0" result="a"/>
    <feComposite in="a" in2="SourceAlpha" operator="in"/></filter>
  <filter id="paper_dragon">
    <feTurbulence type="fractalNoise" baseFrequency="0.5" numOctaves="3" seed="22"/>
    <feColorMatrix type="saturate" values="0"/>
    <feComponentTransfer><feFuncA type="table" tableValues="0 0.7"/></feComponentTransfer></filter></defs><rect width="440" height="792" fill="#0E4031"/><g filter="url(#rough_dragon)"><line x1="220" y1="330" x2="520.0" y2="330.0" stroke="#E8C45A" stroke-width="5" opacity="0.32"/><line x1="220" y1="330" x2="509.8" y2="407.6" stroke="#E8C45A" stroke-width="2" opacity="0.18"/><line x1="220" y1="330" x2="479.8" y2="480.0" stroke="#E8C45A" stroke-width="5" opacity="0.32"/><line x1="220" y1="330" x2="432.1" y2="542.1" stroke="#E8C45A" stroke-width="2" opacity="0.18"/><line x1="220" y1="330" x2="370.0" y2="589.8" stroke="#E8C45A" stroke-width="5" opacity="0.32"/><line x1="220" y1="330" x2="297.6" y2="619.8" stroke="#E8C45A" stroke-width="2" opacity="0.18"/><line x1="220" y1="330" x2="220.0" y2="630.0" stroke="#E8C45A" stroke-width="5" opacity="0.32"/><line x1="220" y1="330" x2="142.4" y2="619.8" stroke="#E8C45A" stroke-width="2" opacity="0.18"/><line x1="220" y1="330" x2="70.0" y2="589.8" stroke="#E8C45A" stroke-width="5" opacity="0.32"/><line x1="220" y1="330" x2="7.9" y2="542.1" stroke="#E8C45A" stroke-width="2" opacity="0.18"/><line x1="220" y1="330" x2="-39.8" y2="480.0" stroke="#E8C45A" stroke-width="5" opacity="0.32"/><line x1="220" y1="330" x2="-69.8" y2="407.6" stroke="#E8C45A" stroke-width="2" opacity="0.18"/><line x1="220" y1="330" x2="-80.0" y2="330.0" stroke="#E8C45A" stroke-width="5" opacity="0.32"/><line x1="220" y1="330" x2="-69.8" y2="252.4" stroke="#E8C45A" stroke-width="2" opacity="0.18"/><line x1="220" y1="330" x2="-39.8" y2="180.0" stroke="#E8C45A" stroke-width="5" opacity="0.32"/><line x1="220" y1="330" x2="7.9" y2="117.9" stroke="#E8C45A" stroke-width="2" opacity="0.18"/><line x1="220" y1="330" x2="70.0" y2="70.2" stroke="#E8C45A" stroke-width="5" opacity="0.32"/><line x1="220" y1="330" x2="142.4" y2="40.2" stroke="#E8C45A" stroke-width="2" opacity="0.18"/><line x1="220" y1="330" x2="220.0" y2="30.0" stroke="#E8C45A" stroke-width="5" opacity="0.32"/><line x1="220" y1="330" x2="297.6" y2="40.2" stroke="#E8C45A" stroke-width="2" opacity="0.18"/><line x1="220" y1="330" x2="370.0" y2="70.2" stroke="#E8C45A" stroke-width="5" opacity="0.32"/><line x1="220" y1="330" x2="432.1" y2="117.9" stroke="#E8C45A" stroke-width="2" opacity="0.18"/><line x1="220" y1="330" x2="479.8" y2="180.0" stroke="#E8C45A" stroke-width="5" opacity="0.32"/><line x1="220" y1="330" x2="509.8" y2="252.4" stroke="#E8C45A" stroke-width="2" opacity="0.18"/></g>
      <g filter="url(#rough_dragon)" fill="none" stroke="#E8C45A"><circle cx="220" cy="330" r="170" stroke-width="5" opacity="0.5"/><circle cx="220" cy="330" r="150" stroke-width="2" opacity="0.6"/><circle cx="220" cy="330" r="250" stroke-width="3" opacity="0.3"/></g>
      <text x="220" y="438" text-anchor="middle" style="font-family:'Hiragino Mincho ProN','Songti SC','Noto Serif CJK SC',serif;font-size:300px;font-weight:700" fill="#072018" opacity="0.5" filter="url(#rough_dragon)" transform="translate(7,8)">中</text>
      <text x="220" y="438" text-anchor="middle" style="font-family:'Hiragino Mincho ProN','Songti SC','Noto Serif CJK SC',serif;font-size:300px;font-weight:700" fill="#C8302C" filter="url(#rough_dragon)">中</text>
      <text x="220" y="438" text-anchor="middle" style="font-family:'Hiragino Mincho ProN','Songti SC','Noto Serif CJK SC',serif;font-size:300px;font-weight:700" fill="none" stroke="#E8C45A" stroke-width="3" filter="url(#rough_dragon)">中</text>
      <g filter="url(#rough_dragon)" fill="#E8C45A" opacity="0.7"><rect x="119.5" y="630.8" width="14.6" height="7.3" transform="rotate(54 126.8 634.4)"/><rect x="48.6" y="601.2" width="17.4" height="8.7" transform="rotate(198 57.3 605.5)"/><rect x="76.4" y="598.6" width="14.3" height="7.2" transform="rotate(230 83.6 602.2)"/><rect x="143.8" y="580.3" width="17.7" height="8.8" transform="rotate(207 152.7 584.7)"/><rect x="287.0" y="645.0" width="9.2" height="4.6" transform="rotate(62 291.5 647.3)"/><rect x="219.6" y="732.8" width="7.4" height="3.7" transform="rotate(65 223.2 734.6)"/><rect x="226.2" y="518.4" width="15.3" height="7.6" transform="rotate(210 233.9 522.2)"/><rect x="384.3" y="555.2" width="17.8" height="8.9" transform="rotate(14 393.2 559.7)"/><rect x="357.9" y="583.0" width="7.9" height="3.9" transform="rotate(224 361.8 585.0)"/><rect x="301.3" y="731.1" width="13.9" height="6.9" transform="rotate(169 308.2 734.6)"/><rect x="301.0" y="678.5" width="16.4" height="8.2" transform="rotate(18 309.2 682.6)"/><rect x="371.5" y="555.9" width="9.1" height="4.5" transform="rotate(28 376.0 558.2)"/><rect x="93.1" y="546.8" width="13.7" height="6.8" transform="rotate(121 99.9 550.2)"/><rect x="235.2" y="670.1" width="10.1" height="5.1" transform="rotate(345 240.3 672.6)"/><rect x="384.7" y="723.8" width="6.1" height="3.1" transform="rotate(314 387.7 725.3)"/><rect x="242.7" y="546.1" width="7.7" height="3.9" transform="rotate(171 246.5 548.1)"/><rect x="280.8" y="724.4" width="14.8" height="7.4" transform="rotate(282 288.2 728.1)"/><rect x="134.2" y="730.2" width="12.6" height="6.3" transform="rotate(206 140.5 733.4)"/><rect x="355.4" y="753.0" width="17.0" height="8.5" transform="rotate(101 363.9 757.3)"/><rect x="390.5" y="617.6" width="18.0" height="9.0" transform="rotate(246 399.5 622.1)"/><rect x="318.0" y="649.9" width="6.6" height="3.3" transform="rotate(216 321.3 651.5)"/><rect x="72.1" y="732.8" width="6.9" height="3.4" transform="rotate(64 75.5 734.5)"/><rect x="52.9" y="612.5" width="15.5" height="7.8" transform="rotate(169 60.7 616.4)"/><rect x="148.4" y="762.8" width="6.1" height="3.0" transform="rotate(136 151.4 764.3)"/><rect x="112.0" y="713.7" width="13.3" height="6.6" transform="rotate(63 118.6 717.1)"/><rect x="161.2" y="638.1" width="17.2" height="8.6" transform="rotate(54 169.7 642.4)"/></g><rect width="440" height="792" fill="#0E4031" opacity="0.45"/><rect width="440" height="792" filter="url(#paper_dragon)" opacity="0.1" style="mix-blend-mode:multiply"/></svg>