<svg xmlns="http://www.w3.org/2000/svg" viewBox="0 0 440 792" preserveAspectRatio="xMidYMid slice"><defs><filter id="rough_felt" x="-25%" y="-25%" width="150%" height="150%"><feTurbulence type="fractalNoise" baseFrequency="0.016" numOctaves="3" seed="29" result="n"/><feDisplacementMap in="SourceGraphic" in2="n" scale="9" xChannelSelector="R" yChannelSelector="G"/></filter>
<filter id="paper_felt"><feTurbulence type="fractalNoise" baseFrequency="0.5" numOctaves="3" seed="38"/><feColorMatrix type="saturate" values="0"/><feComponentTransfer><feFuncA type="table" tableValues="0 0.7"/></feComponentTransfer></filter></defs>
<rect width="440" height="792" fill="#1C5A3E"/>
<radialGradient id="vig" cx="0.5" cy="0.35" r="0.8"><stop offset="0" stop-color="#2A7150"/><stop offset="1" stop-color="#1C5A3E"/></radialGradient>
<rect width="440" height="792" fill="url(#vig)" opacity="0.7"/>
<g filter="url(#rough_felt)"><g transform="translate(116,672) rotate(12.8)" opacity="0.9">
    <rect x="-26.9" y="-32.5" width="53.8" height="71.0" rx="6" fill="#0C3D27"/>
    <rect x="-26.9" y="-35.5" width="53.8" height="71.0" rx="6" fill="#FBF7EE"/>
    <text x="0" y="2" text-anchor="middle" dominant-baseline="central" font-size="32" font-weight="700" fill="#E2568F" font-family="'Hiragino Mincho ProN','Songti SC',serif">萬</text></g><g transform="translate(160,96) rotate(14.5)" opacity="0.9">
    <rect x="-22.6" y="-26.8" width="45.1" height="59.5" rx="6" fill="#0C3D27"/>
    <rect x="-22.6" y="-29.8" width="45.1" height="59.5" rx="6" fill="#FBF7EE"/>
    <text x="0" y="2" text-anchor="middle" dominant-baseline="central" font-size="27" font-weight="700" fill="#C9871A" font-family="'Hiragino Mincho ProN','Songti SC',serif">南</text></g><g transform="translate(193,427) rotate(8.3)" opacity="0.9">
    <rect x="-26.8" y="-32.4" width="53.7" height="70.9" rx="6" fill="#0C3D27"/>
    <rect x="-26.8" y="-35.4" width="53.7" height="70.9" rx="6" fill="#FBF7EE"/>
    <text x="0" y="2" text-anchor="middle" dominant-baseline="central" font-size="32" font-weight="700" fill="#C9871A" font-family="'Hiragino Mincho ProN','Songti SC',serif">北</text></g><g transform="translate(201,631) rotate(-0.6)" opacity="0.9">
    <rect x="-24.9" y="-29.9" width="49.8" height="65.7" rx="6" fill="#0C3D27"/>
    <rect x="-24.9" y="-32.9" width="49.8" height="65.7" rx="6" fill="#FBF7EE"/>
    <text x="0" y="2" text-anchor="middle" dominant-baseline="central" font-size="30" font-weight="700" fill="#2E86D4" font-family="'Hiragino Mincho ProN','Songti SC',serif">萬</text></g><g transform="translate(330,300) rotate(14.5)" opacity="0.9">
    <rect x="-23.4" y="-27.9" width="46.9" height="61.9" rx="6" fill="#0C3D27"/>
    <rect x="-23.4" y="-30.9" width="46.9" height="61.9" rx="6" fill="#FBF7EE"/>
    <text x="0" y="2" text-anchor="middle" dominant-baseline="central" font-size="28" font-weight="700" fill="#C9871A" font-family="'Hiragino Mincho ProN','Songti SC',serif">萬</text></g><g transform="translate(194,132) rotate(3.6)" opacity="0.9">
    <rect x="-22.9" y="-27.2" width="45.8" height="60.5" rx="6" fill="#0C3D27"/>
    <rect x="-22.9" y="-30.2" width="45.8" height="60.5" rx="6" fill="#FBF7EE"/>
    <text x="0" y="2" text-anchor="middle" dominant-baseline="central" font-size="27" font-weight="700" fill="#C0392B" font-family="'Hiragino Mincho ProN','Songti SC',serif">北</text></g><g transform="translate(248,681) rotate(2.7)" opacity="0.9">
    <rect x="-24.1" y="-28.8" width="48.3" height="63.7" rx="6" fill="#0C3D27"/>
    <rect x="-24.1" y="-31.8" width="48.3" height="63.7" rx="6" fill="#FBF7EE"/>
    <text x="0" y="2" text-anchor="middle" dominant-baseline="central" font-size="29" font-weight="700" fill="#10B39A" font-family="'Hiragino Mincho ProN','Songti SC',serif">中</text></g></g>
<rect width="440" height="792" fill="#1C5A3E" opacity="0.42"/>
<rect width="440" height="792" filter="url(#paper_felt)" opacity="0.08" style="mix-blend-mode:multiply"/></svg>