<svg xmlns="http://www.w3.org/2000/svg" viewBox="0 0 440 792" preserveAspectRatio="xMidYMid slice">
<defs>
  <filter id="rough_flower" x="-25%" y="-25%" width="150%" height="150%">
    <feTurbulence type="fractalNoise" baseFrequency="0.016" numOctaves="3" seed="8" result="n"/>
    <feDisplacementMap in="SourceGraphic" in2="n" scale="11" xChannelSelector="R" yChannelSelector="G"/></filter>
  <filter id="roughBig_flower" x="-30%" y="-30%" width="160%" height="160%">
    <feTurbulence type="fractalNoise" baseFrequency="0.009" numOctaves="2" seed="13" result="n"/>
    <feDisplacementMap in="SourceGraphic" in2="n" scale="20" xChannelSelector="R" yChannelSelector="G"/></filter>
  <filter id="ink_flower">
    <feTurbulence type="fractalNoise" baseFrequency="0.7 0.9" numOctaves="2" seed="10" result="n"/>
    <feColorMatrix in="n" type="matrix" values="0 0 0 0 0  0 0 0 0 0  0 0 0 0 0  0 0 0 0.5 0" result="a"/>
    <feComposite in="a" in2="SourceAlpha" operator="in"/></filter>
  <filter id="paper_flower">
    <feTurbulence type="fractalNoise" baseFrequency="0.5" numOctaves="3" seed="17"/>
    <feColorMatrix type="saturate" values="0"/>
    <feComponentTransfer><feFuncA type="table" tableValues="0 0.7"/></feComponentTransfer></filter></defs><rect width="440" height="792" fill="#F7DCE9"/><g filter="url(#rough_flower)"><g transform="translate(5,6)" opacity="0.4" fill="#C9518A"><ellipse cx="-0.4" cy="65.1" rx="21.42" ry="40.32" transform="rotate(0 -0.4 65.1)"/><ellipse cx="-0.4" cy="65.1" rx="21.42" ry="40.32" transform="rotate(72 -0.4 65.1)"/><ellipse cx="-0.4" cy="65.1" rx="21.42" ry="40.32" transform="rotate(144 -0.4 65.1)"/><ellipse cx="-0.4" cy="65.1" rx="21.42" ry="40.32" transform="rotate(216 -0.4 65.1)"/><ellipse cx="-0.4" cy="65.1" rx="21.42" ry="40.32" transform="rotate(288 -0.4 65.1)"/></g><g fill="#EA6FA8"><ellipse cx="-0.4" cy="65.1" rx="21.42" ry="40.32" transform="rotate(0 -0.4 65.1)"/><ellipse cx="-0.4" cy="65.1" rx="21.42" ry="40.32" transform="rotate(72 -0.4 65.1)"/><ellipse cx="-0.4" cy="65.1" rx="21.42" ry="40.32" transform="rotate(144 -0.4 65.1)"/><ellipse cx="-0.4" cy="65.1" rx="21.42" ry="40.32" transform="rotate(216 -0.4 65.1)"/><ellipse cx="-0.4" cy="65.1" rx="21.42" ry="40.32" transform="rotate(288 -0.4 65.1)"/></g><circle cx="-0.4" cy="65.1" r="16.4" fill="#F4C84A"/><g transform="translate(5,6)" opacity="0.4" fill="#C9518A"><ellipse cx="158.6" cy="83.1" rx="29.24" ry="55.04" transform="rotate(0 158.6 83.1)"/><ellipse cx="158.6" cy="83.1" rx="29.24" ry="55.04" transform="rotate(72 158.6 83.1)"/><ellipse cx="158.6" cy="83.1" rx="29.24" ry="55.04" transform="rotate(144 158.6 83.1)"/><ellipse cx="158.6" cy="83.1" rx="29.24" ry="55.04" transform="rotate(216 158.6 83.1)"/><ellipse cx="158.6" cy="83.1" rx="29.24" ry="55.04" transform="rotate(288 158.6 83.1)"/></g><g fill="#EA6FA8"><ellipse cx="158.6" cy="83.1" rx="29.24" ry="55.04" transform="rotate(0 158.6 83.1)"/><ellipse cx="158.6" cy="83.1" rx="29.24" ry="55.04" transform="rotate(72 158.6 83.1)"/><ellipse cx="158.6" cy="83.1" rx="29.24" ry="55.04" transform="rotate(144 158.6 83.1)"/><ellipse cx="158.6" cy="83.1" rx="29.24" ry="55.04" transform="rotate(216 158.6 83.1)"/><ellipse cx="158.6" cy="83.1" rx="29.24" ry="55.04" transform="rotate(288 158.6 83.1)"/></g><circle cx="158.6" cy="83.1" r="22.4" fill="#F4C84A"/><g transform="translate(5,6)" opacity="0.4" fill="#C03B73"><ellipse cx="293.1" cy="66.2" rx="23.459999999999997" ry="44.16" transform="rotate(0 293.1 66.2)"/><ellipse cx="293.1" cy="66.2" rx="23.459999999999997" ry="44.16" transform="rotate(72 293.1 66.2)"/><ellipse cx="293.1" cy="66.2" rx="23.459999999999997" ry="44.16" transform="rotate(144 293.1 66.2)"/><ellipse cx="293.1" cy="66.2" rx="23.459999999999997" ry="44.16" transform="rotate(216 293.1 66.2)"/><ellipse cx="293.1" cy="66.2" rx="23.459999999999997" ry="44.16" transform="rotate(288 293.1 66.2)"/></g><g fill="#E2568F"><ellipse cx="293.1" cy="66.2" rx="23.459999999999997" ry="44.16" transform="rotate(0 293.1 66.2)"/><ellipse cx="293.1" cy="66.2" rx="23.459999999999997" ry="44.16" transform="rotate(72 293.1 66.2)"/><ellipse cx="293.1" cy="66.2" rx="23.459999999999997" ry="44.16" transform="rotate(144 293.1 66.2)"/><ellipse cx="293.1" cy="66.2" rx="23.459999999999997" ry="44.16" transform="rotate(216 293.1 66.2)"/><ellipse cx="293.1" cy="66.2" rx="23.459999999999997" ry="44.16" transform="rotate(288 293.1 66.2)"/></g><circle cx="293.1" cy="66.2" r="17.9" fill="#F4C84A"/><g transform="translate(5,6)" opacity="0.4" fill="#C03B73"><ellipse cx="427.1" cy="80.0" rx="29.92" ry="56.32" transform="rotate(0 427.1 80.0)"/><ellipse cx="427.1" cy="80.0" rx="29.92" ry="56.32" transform="rotate(72 427.1 80.0)"/><ellipse cx="427.1" cy="80.0" rx="29.92" ry="56.32" transform="rotate(144 427.1 80.0)"/><ellipse cx="427.1" cy="80.0" rx="29.92" ry="56.32" transform="rotate(216 427.1 80.0)"/><ellipse cx="427.1" cy="80.0" rx="29.92" ry="56.32" transform="rotate(288 427.1 80.0)"/></g><g fill="#E2568F"><ellipse cx="427.1" cy="80.0" rx="29.92" ry="56.32" transform="rotate(0 427.1 80.0)"/><ellipse cx="427.1" cy="80.0" rx="29.92" ry="56.32" transform="rotate(72 427.1 80.0)"/><ellipse cx="427.1" cy="80.0" rx="29.92" ry="56.32" transform="rotate(144 427.1 80.0)"/><ellipse cx="427.1" cy="80.0" rx="29.92" ry="56.32" transform="rotate(216 427.1 80.0)"/><ellipse cx="427.1" cy="80.0" rx="29.92" ry="56.32" transform="rotate(288 427.1 80.0)"/></g><circle cx="427.1" cy="80.0" r="22.9" fill="#F4C84A"/><g transform="translate(5,6)" opacity="0.4" fill="#C9518A"><ellipse cx="97.3" cy="248.0" rx="28.9" ry="54.4" transform="rotate(0 97.3 248.0)"/><ellipse cx="97.3" cy="248.0" rx="28.9" ry="54.4" transform="rotate(72 97.3 248.0)"/><ellipse cx="97.3" cy="248.0" rx="28.9" ry="54.4" transform="rotate(144 97.3 248.0)"/><ellipse cx="97.3" cy="248.0" rx="28.9" ry="54.4" transform="rotate(216 97.3 248.0)"/><ellipse cx="97.3" cy="248.0" rx="28.9" ry="54.4" transform="rotate(288 97.3 248.0)"/></g><g fill="#EA6FA8"><ellipse cx="97.3" cy="248.0" rx="28.9" ry="54.4" transform="rotate(0 97.3 248.0)"/><ellipse cx="97.3" cy="248.0" rx="28.9" ry="54.4" transform="rotate(72 97.3 248.0)"/><ellipse cx="97.3" cy="248.0" rx="28.9" ry="54.4" transform="rotate(144 97.3 248.0)"/><ellipse cx="97.3" cy="248.0" rx="28.9" ry="54.4" transform="rotate(216 97.3 248.0)"/><ellipse cx="97.3" cy="248.0" rx="28.9" ry="54.4" transform="rotate(288 97.3 248.0)"/></g><circle cx="97.3" cy="248.0" r="22.1" fill="#F4C84A"/><g transform="translate(5,6)" opacity="0.4" fill="#C9518A"><ellipse cx="202.1" cy="236.3" rx="28.56" ry="53.76" transform="rotate(0 202.1 236.3)"/><ellipse cx="202.1" cy="236.3" rx="28.56" ry="53.76" transform="rotate(72 202.1 236.3)"/><ellipse cx="202.1" cy="236.3" rx="28.56" ry="53.76" transform="rotate(144 202.1 236.3)"/><ellipse cx="202.1" cy="236.3" rx="28.56" ry="53.76" transform="rotate(216 202.1 236.3)"/><ellipse cx="202.1" cy="236.3" rx="28.56" ry="53.76" transform="rotate(288 202.1 236.3)"/></g><g fill="#EA6FA8"><ellipse cx="202.1" cy="236.3" rx="28.56" ry="53.76" transform="rotate(0 202.1 236.3)"/><ellipse cx="202.1" cy="236.3" rx="28.56" ry="53.76" transform="rotate(72 202.1 236.3)"/><ellipse cx="202.1" cy="236.3" rx="28.56" ry="53.76" transform="rotate(144 202.1 236.3)"/><ellipse cx="202.1" cy="236.3" rx="28.56" ry="53.76" transform="rotate(216 202.1 236.3)"/><ellipse cx="202.1" cy="236.3" rx="28.56" ry="53.76" transform="rotate(288 202.1 236.3)"/></g><circle cx="202.1" cy="236.3" r="21.8" fill="#F4C84A"/><g transform="translate(5,6)" opacity="0.4" fill="#C9518A"><ellipse cx="378.1" cy="259.0" rx="28.9" ry="54.4" transform="rotate(0 378.1 259.0)"/><ellipse cx="378.1" cy="259.0" rx="28.9" ry="54.4" transform="rotate(72 378.1 259.0)"/><ellipse cx="378.1" cy="259.0" rx="28.9" ry="54.4" transform="rotate(144 378.1 259.0)"/><ellipse cx="378.1" cy="259.0" rx="28.9" ry="54.4" transform="rotate(216 378.1 259.0)"/><ellipse cx="378.1" cy="259.0" rx="28.9" ry="54.4" transform="rotate(288 378.1 259.0)"/></g><g fill="#EA6FA8"><ellipse cx="378.1" cy="259.0" rx="28.9" ry="54.4" transform="rotate(0 378.1 259.0)"/><ellipse cx="378.1" cy="259.0" rx="28.9" ry="54.4" transform="rotate(72 378.1 259.0)"/><ellipse cx="378.1" cy="259.0" rx="28.9" ry="54.4" transform="rotate(144 378.1 259.0)"/><ellipse cx="378.1" cy="259.0" rx="28.9" ry="54.4" transform="rotate(216 378.1 259.0)"/><ellipse cx="378.1" cy="259.0" rx="28.9" ry="54.4" transform="rotate(288 378.1 259.0)"/></g><circle cx="378.1" cy="259.0" r="22.1" fill="#F4C84A"/><g transform="translate(5,6)" opacity="0.4" fill="#C03B73"><ellipse cx="517.3" cy="237.2" rx="17.68" ry="33.28" transform="rotate(0 517.3 237.2)"/><ellipse cx="517.3" cy="237.2" rx="17.68" ry="33.28" transform="rotate(72 517.3 237.2)"/><ellipse cx="517.3" cy="237.2" rx="17.68" ry="33.28" transform="rotate(144 517.3 237.2)"/><ellipse cx="517.3" cy="237.2" rx="17.68" ry="33.28" transform="rotate(216 517.3 237.2)"/><ellipse cx="517.3" cy="237.2" rx="17.68" ry="33.28" transform="rotate(288 517.3 237.2)"/></g><g fill="#E2568F"><ellipse cx="517.3" cy="237.2" rx="17.68" ry="33.28" transform="rotate(0 517.3 237.2)"/><ellipse cx="517.3" cy="237.2" rx="17.68" ry="33.28" transform="rotate(72 517.3 237.2)"/><ellipse cx="517.3" cy="237.2" rx="17.68" ry="33.28" transform="rotate(144 517.3 237.2)"/><ellipse cx="517.3" cy="237.2" rx="17.68" ry="33.28" transform="rotate(216 517.3 237.2)"/><ellipse cx="517.3" cy="237.2" rx="17.68" ry="33.28" transform="rotate(288 517.3 237.2)"/></g><circle cx="517.3" cy="237.2" r="13.5" fill="#F4C84A"/><g transform="translate(5,6)" opacity="0.4" fill="#C03B73"><ellipse cx="-6.9" cy="411.8" rx="19.72" ry="37.12" transform="rotate(0 -6.9 411.8)"/><ellipse cx="-6.9" cy="411.8" rx="19.72" ry="37.12" transform="rotate(72 -6.9 411.8)"/><ellipse cx="-6.9" cy="411.8" rx="19.72" ry="37.12" transform="rotate(144 -6.9 411.8)"/><ellipse cx="-6.9" cy="411.8" rx="19.72" ry="37.12" transform="rotate(216 -6.9 411.8)"/><ellipse cx="-6.9" cy="411.8" rx="19.72" ry="37.12" transform="rotate(288 -6.9 411.8)"/></g><g fill="#E2568F"><ellipse cx="-6.9" cy="411.8" rx="19.72" ry="37.12" transform="rotate(0 -6.9 411.8)"/><ellipse cx="-6.9" cy="411.8" rx="19.72" ry="37.12" transform="rotate(72 -6.9 411.8)"/><ellipse cx="-6.9" cy="411.8" rx="19.72" ry="37.12" transform="rotate(144 -6.9 411.8)"/><ellipse cx="-6.9" cy="411.8" rx="19.72" ry="37.12" transform="rotate(216 -6.9 411.8)"/><ellipse cx="-6.9" cy="411.8" rx="19.72" ry="37.12" transform="rotate(288 -6.9 411.8)"/></g><circle cx="-6.9" cy="411.8" r="15.1" fill="#F4C84A"/><g transform="translate(5,6)" opacity="0.4" fill="#C9518A"><ellipse cx="148.5" cy="427.5" rx="19.38" ry="36.48" transform="rotate(0 148.5 427.5)"/><ellipse cx="148.5" cy="427.5" rx="19.38" ry="36.48" transform="rotate(72 148.5 427.5)"/><ellipse cx="148.5" cy="427.5" rx="19.38" ry="36.48" transform="rotate(144 148.5 427.5)"/><ellipse cx="148.5" cy="427.5" rx="19.38" ry="36.48" transform="rotate(216 148.5 427.5)"/><ellipse cx="148.5" cy="427.5" rx="19.38" ry="36.48" transform="rotate(288 148.5 427.5)"/></g><g fill="#EA6FA8"><ellipse cx="148.5" cy="427.5" rx="19.38" ry="36.48" transform="rotate(0 148.5 427.5)"/><ellipse cx="148.5" cy="427.5" rx="19.38" ry="36.48" transform="rotate(72 148.5 427.5)"/><ellipse cx="148.5" cy="427.5" rx="19.38" ry="36.48" transform="rotate(144 148.5 427.5)"/><ellipse cx="148.5" cy="427.5" rx="19.38" ry="36.48" transform="rotate(216 148.5 427.5)"/><ellipse cx="148.5" cy="427.5" rx="19.38" ry="36.48" transform="rotate(288 148.5 427.5)"/></g><circle cx="148.5" cy="427.5" r="14.8" fill="#F4C84A"/><g transform="translate(5,6)" opacity="0.4" fill="#C03B73"><ellipse cx="273.4" cy="411.1" rx="18.02" ry="33.92" transform="rotate(0 273.4 411.1)"/><ellipse cx="273.4" cy="411.1" rx="18.02" ry="33.92" transform="rotate(72 273.4 411.1)"/><ellipse cx="273.4" cy="411.1" rx="18.02" ry="33.92" transform="rotate(144 273.4 411.1)"/><ellipse cx="273.4" cy="411.1" rx="18.02" ry="33.92" transform="rotate(216 273.4 411.1)"/><ellipse cx="273.4" cy="411.1" rx="18.02" ry="33.92" transform="rotate(288 273.4 411.1)"/></g><g fill="#E2568F"><ellipse cx="273.4" cy="411.1" rx="18.02" ry="33.92" transform="rotate(0 273.4 411.1)"/><ellipse cx="273.4" cy="411.1" rx="18.02" ry="33.92" transform="rotate(72 273.4 411.1)"/><ellipse cx="273.4" cy="411.1" rx="18.02" ry="33.92" transform="rotate(144 273.4 411.1)"/><ellipse cx="273.4" cy="411.1" rx="18.02" ry="33.92" transform="rotate(216 273.4 411.1)"/><ellipse cx="273.4" cy="411.1" rx="18.02" ry="33.92" transform="rotate(288 273.4 411.1)"/></g><circle cx="273.4" cy="411.1" r="13.8" fill="#F4C84A"/><g transform="translate(5,6)" opacity="0.4" fill="#D9712F"><ellipse cx="446.5" cy="409.7" rx="21.08" ry="39.68" transform="rotate(0 446.5 409.7)"/><ellipse cx="446.5" cy="409.7" rx="21.08" ry="39.68" transform="rotate(72 446.5 409.7)"/><ellipse cx="446.5" cy="409.7" rx="21.08" ry="39.68" transform="rotate(144 446.5 409.7)"/><ellipse cx="446.5" cy="409.7" rx="21.08" ry="39.68" transform="rotate(216 446.5 409.7)"/><ellipse cx="446.5" cy="409.7" rx="21.08" ry="39.68" transform="rotate(288 446.5 409.7)"/></g><g fill="#F2934F"><ellipse cx="446.5" cy="409.7" rx="21.08" ry="39.68" transform="rotate(0 446.5 409.7)"/><ellipse cx="446.5" cy="409.7" rx="21.08" ry="39.68" transform="rotate(72 446.5 409.7)"/><ellipse cx="446.5" cy="409.7" rx="21.08" ry="39.68" transform="rotate(144 446.5 409.7)"/><ellipse cx="446.5" cy="409.7" rx="21.08" ry="39.68" transform="rotate(216 446.5 409.7)"/><ellipse cx="446.5" cy="409.7" rx="21.08" ry="39.68" transform="rotate(288 446.5 409.7)"/></g><circle cx="446.5" cy="409.7" r="16.1" fill="#F4C84A"/><g transform="translate(5,6)" opacity="0.4" fill="#C03B73"><ellipse cx="87.1" cy="585.5" rx="27.200000000000003" ry="51.2" transform="rotate(0 87.1 585.5)"/><ellipse cx="87.1" cy="585.5" rx="27.200000000000003" ry="51.2" transform="rotate(72 87.1 585.5)"/><ellipse cx="87.1" cy="585.5" rx="27.200000000000003" ry="51.2" transform="rotate(144 87.1 585.5)"/><ellipse cx="87.1" cy="585.5" rx="27.200000000000003" ry="51.2" transform="rotate(216 87.1 585.5)"/><ellipse cx="87.1" cy="585.5" rx="27.200000000000003" ry="51.2" transform="rotate(288 87.1 585.5)"/></g><g fill="#E2568F"><ellipse cx="87.1" cy="585.5" rx="27.200000000000003" ry="51.2" transform="rotate(0 87.1 585.5)"/><ellipse cx="87.1" cy="585.5" rx="27.200000000000003" ry="51.2" transform="rotate(72 87.1 585.5)"/><ellipse cx="87.1" cy="585.5" rx="27.200000000000003" ry="51.2" transform="rotate(144 87.1 585.5)"/><ellipse cx="87.1" cy="585.5" rx="27.200000000000003" ry="51.2" transform="rotate(216 87.1 585.5)"/><ellipse cx="87.1" cy="585.5" rx="27.200000000000003" ry="51.2" transform="rotate(288 87.1 585.5)"/></g><circle cx="87.1" cy="585.5" r="20.8" fill="#F4C84A"/><g transform="translate(5,6)" opacity="0.4" fill="#C9518A"><ellipse cx="212.2" cy="596.1" rx="22.78" ry="42.88" transform="rotate(0 212.2 596.1)"/><ellipse cx="212.2" cy="596.1" rx="22.78" ry="42.88" transform="rotate(72 212.2 596.1)"/><ellipse cx="212.2" cy="596.1" rx="22.78" ry="42.88" transform="rotate(144 212.2 596.1)"/><ellipse cx="212.2" cy="596.1" rx="22.78" ry="42.88" transform="rotate(216 212.2 596.1)"/><ellipse cx="212.2" cy="596.1" rx="22.78" ry="42.88" transform="rotate(288 212.2 596.1)"/></g><g fill="#EA6FA8"><ellipse cx="212.2" cy="596.1" rx="22.78" ry="42.88" transform="rotate(0 212.2 596.1)"/><ellipse cx="212.2" cy="596.1" rx="22.78" ry="42.88" transform="rotate(72 212.2 596.1)"/><ellipse cx="212.2" cy="596.1" rx="22.78" ry="42.88" transform="rotate(144 212.2 596.1)"/><ellipse cx="212.2" cy="596.1" rx="22.78" ry="42.88" transform="rotate(216 212.2 596.1)"/><ellipse cx="212.2" cy="596.1" rx="22.78" ry="42.88" transform="rotate(288 212.2 596.1)"/></g><circle cx="212.2" cy="596.1" r="17.4" fill="#F4C84A"/><g transform="translate(5,6)" opacity="0.4" fill="#D9712F"><ellipse cx="345.6" cy="605.0" rx="24.48" ry="46.08" transform="rotate(0 345.6 605.0)"/><ellipse cx="345.6" cy="605.0" rx="24.48" ry="46.08" transform="rotate(72 345.6 605.0)"/><ellipse cx="345.6" cy="605.0" rx="24.48" ry="46.08" transform="rotate(144 345.6 605.0)"/><ellipse cx="345.6" cy="605.0" rx="24.48" ry="46.08" transform="rotate(216 345.6 605.0)"/><ellipse cx="345.6" cy="605.0" rx="24.48" ry="46.08" transform="rotate(288 345.6 605.0)"/></g><g fill="#F2934F"><ellipse cx="345.6" cy="605.0" rx="24.48" ry="46.08" transform="rotate(0 345.6 605.0)"/><ellipse cx="345.6" cy="605.0" rx="24.48" ry="46.08" transform="rotate(72 345.6 605.0)"/><ellipse cx="345.6" cy="605.0" rx="24.48" ry="46.08" transform="rotate(144 345.6 605.0)"/><ellipse cx="345.6" cy="605.0" rx="24.48" ry="46.08" transform="rotate(216 345.6 605.0)"/><ellipse cx="345.6" cy="605.0" rx="24.48" ry="46.08" transform="rotate(288 345.6 605.0)"/></g><circle cx="345.6" cy="605.0" r="18.7" fill="#F4C84A"/><g transform="translate(5,6)" opacity="0.4" fill="#C9518A"><ellipse cx="493.5" cy="584.6" rx="19.040000000000003" ry="35.84" transform="rotate(0 493.5 584.6)"/><ellipse cx="493.5" cy="584.6" rx="19.040000000000003" ry="35.84" transform="rotate(72 493.5 584.6)"/><ellipse cx="493.5" cy="584.6" rx="19.040000000000003" ry="35.84" transform="rotate(144 493.5 584.6)"/><ellipse cx="493.5" cy="584.6" rx="19.040000000000003" ry="35.84" transform="rotate(216 493.5 584.6)"/><ellipse cx="493.5" cy="584.6" rx="19.040000000000003" ry="35.84" transform="rotate(288 493.5 584.6)"/></g><g fill="#EA6FA8"><ellipse cx="493.5" cy="584.6" rx="19.040000000000003" ry="35.84" transform="rotate(0 493.5 584.6)"/><ellipse cx="493.5" cy="584.6" rx="19.040000000000003" ry="35.84" transform="rotate(72 493.5 584.6)"/><ellipse cx="493.5" cy="584.6" rx="19.040000000000003" ry="35.84" transform="rotate(144 493.5 584.6)"/><ellipse cx="493.5" cy="584.6" rx="19.040000000000003" ry="35.84" transform="rotate(216 493.5 584.6)"/><ellipse cx="493.5" cy="584.6" rx="19.040000000000003" ry="35.84" transform="rotate(288 493.5 584.6)"/></g><circle cx="493.5" cy="584.6" r="14.6" fill="#F4C84A"/><g transform="translate(5,6)" opacity="0.4" fill="#D9712F"><ellipse cx="-7.3" cy="761.2" rx="18.36" ry="34.56" transform="rotate(0 -7.3 761.2)"/><ellipse cx="-7.3" cy="761.2" rx="18.36" ry="34.56" transform="rotate(72 -7.3 761.2)"/><ellipse cx="-7.3" cy="761.2" rx="18.36" ry="34.56" transform="rotate(144 -7.3 761.2)"/><ellipse cx="-7.3" cy="761.2" rx="18.36" ry="34.56" transform="rotate(216 -7.3 761.2)"/><ellipse cx="-7.3" cy="761.2" rx="18.36" ry="34.56" transform="rotate(288 -7.3 761.2)"/></g><g fill="#F2934F"><ellipse cx="-7.3" cy="761.2" rx="18.36" ry="34.56" transform="rotate(0 -7.3 761.2)"/><ellipse cx="-7.3" cy="761.2" rx="18.36" ry="34.56" transform="rotate(72 -7.3 761.2)"/><ellipse cx="-7.3" cy="761.2" rx="18.36" ry="34.56" transform="rotate(144 -7.3 761.2)"/><ellipse cx="-7.3" cy="761.2" rx="18.36" ry="34.56" transform="rotate(216 -7.3 761.2)"/><ellipse cx="-7.3" cy="761.2" rx="18.36" ry="34.56" transform="rotate(288 -7.3 761.2)"/></g><circle cx="-7.3" cy="761.2" r="14.0" fill="#F4C84A"/><g transform="translate(5,6)" opacity="0.4" fill="#C9518A"><ellipse cx="146.5" cy="760.0" rx="19.72" ry="37.12" transform="rotate(0 146.5 760.0)"/><ellipse cx="146.5" cy="760.0" rx="19.72" ry="37.12" transform="rotate(72 146.5 760.0)"/><ellipse cx="146.5" cy="760.0" rx="19.72" ry="37.12" transform="rotate(144 146.5 760.0)"/><ellipse cx="146.5" cy="760.0" rx="19.72" ry="37.12" transform="rotate(216 146.5 760.0)"/><ellipse cx="146.5" cy="760.0" rx="19.72" ry="37.12" transform="rotate(288 146.5 760.0)"/></g><g fill="#EA6FA8"><ellipse cx="146.5" cy="760.0" rx="19.72" ry="37.12" transform="rotate(0 146.5 760.0)"/><ellipse cx="146.5" cy="760.0" rx="19.72" ry="37.12" transform="rotate(72 146.5 760.0)"/><ellipse cx="146.5" cy="760.0" rx="19.72" ry="37.12" transform="rotate(144 146.5 760.0)"/><ellipse cx="146.5" cy="760.0" rx="19.72" ry="37.12" transform="rotate(216 146.5 760.0)"/><ellipse cx="146.5" cy="760.0" rx="19.72" ry="37.12" transform="rotate(288 146.5 760.0)"/></g><circle cx="146.5" cy="760.0" r="15.1" fill="#F4C84A"/><g transform="translate(5,6)" opacity="0.4" fill="#D9712F"><ellipse cx="275.5" cy="763.7" rx="26.18" ry="49.28" transform="rotate(0 275.5 763.7)"/><ellipse cx="275.5" cy="763.7" rx="26.18" ry="49.28" transform="rotate(72 275.5 763.7)"/><ellipse cx="275.5" cy="763.7" rx="26.18" ry="49.28" transform="rotate(144 275.5 763.7)"/><ellipse cx="275.5" cy="763.7" rx="26.18" ry="49.28" transform="rotate(216 275.5 763.7)"/><ellipse cx="275.5" cy="763.7" rx="26.18" ry="49.28" transform="rotate(288 275.5 763.7)"/></g><g fill="#F2934F"><ellipse cx="275.5" cy="763.7" rx="26.18" ry="49.28" transform="rotate(0 275.5 763.7)"/><ellipse cx="275.5" cy="763.7" rx="26.18" ry="49.28" transform="rotate(72 275.5 763.7)"/><ellipse cx="275.5" cy="763.7" rx="26.18" ry="49.28" transform="rotate(144 275.5 763.7)"/><ellipse cx="275.5" cy="763.7" rx="26.18" ry="49.28" transform="rotate(216 275.5 763.7)"/><ellipse cx="275.5" cy="763.7" rx="26.18" ry="49.28" transform="rotate(288 275.5 763.7)"/></g><circle cx="275.5" cy="763.7" r="20.0" fill="#F4C84A"/><g transform="translate(5,6)" opacity="0.4" fill="#D9712F"><ellipse cx="436.9" cy="749.0" rx="31.62" ry="59.52" transform="rotate(0 436.9 749.0)"/><ellipse cx="436.9" cy="749.0" rx="31.62" ry="59.52" transform="rotate(72 436.9 749.0)"/><ellipse cx="436.9" cy="749.0" rx="31.62" ry="59.52" transform="rotate(144 436.9 749.0)"/><ellipse cx="436.9" cy="749.0" rx="31.62" ry="59.52" transform="rotate(216 436.9 749.0)"/><ellipse cx="436.9" cy="749.0" rx="31.62" ry="59.52" transform="rotate(288 436.9 749.0)"/></g><g fill="#F2934F"><ellipse cx="436.9" cy="749.0" rx="31.62" ry="59.52" transform="rotate(0 436.9 749.0)"/><ellipse cx="436.9" cy="749.0" rx="31.62" ry="59.52" transform="rotate(72 436.9 749.0)"/><ellipse cx="436.9" cy="749.0" rx="31.62" ry="59.52" transform="rotate(144 436.9 749.0)"/><ellipse cx="436.9" cy="749.0" rx="31.62" ry="59.52" transform="rotate(216 436.9 749.0)"/><ellipse cx="436.9" cy="749.0" rx="31.62" ry="59.52" transform="rotate(288 436.9 749.0)"/></g><circle cx="436.9" cy="749.0" r="24.2" fill="#F4C84A"/></g><g filter="url(#rough_flower)" fill="#2E8E5C" opacity="0.5"><ellipse cx="408.4" cy="134.4" rx="28" ry="13" transform="rotate(-14 408.4 134.4)"/><ellipse cx="202.0" cy="147.8" rx="28" ry="13" transform="rotate(-63 202.0 147.8)"/><ellipse cx="127.9" cy="395.0" rx="28" ry="13" transform="rotate(-86 127.9 395.0)"/><ellipse cx="22.3" cy="706.6" rx="28" ry="13" transform="rotate(-45 22.3 706.6)"/><ellipse cx="397.6" cy="759.9" rx="28" ry="13" transform="rotate(-48 397.6 759.9)"/><ellipse cx="278.5" cy="450.4" rx="28" ry="13" transform="rotate(64 278.5 450.4)"/><ellipse cx="168.3" cy="262.9" rx="28" ry="13" transform="rotate(-4 168.3 262.9)"/></g><rect width="440" height="792" fill="#F7DCE9" opacity="0.45"/><rect width="440" height="792" filter="url(#paper_flower)" opacity="0.08" style="mix-blend-mode:multiply"/></svg>