<svg xmlns="http://www.w3.org/2000/svg" viewBox="0 0 440 792" preserveAspectRatio="xMidYMid slice"><defs><filter id="rough_flower" x="-25%" y="-25%" width="150%" height="150%"><feTurbulence type="fractalNoise" baseFrequency="0.016" numOctaves="3" seed="8" result="n"/><feDisplacementMap in="SourceGraphic" in2="n" scale="11" xChannelSelector="R" yChannelSelector="G"/></filter><filter id="roughBig_flower" x="-30%" y="-30%" width="160%" height="160%"><feTurbulence type="fractalNoise" baseFrequency="0.009" numOctaves="2" seed="13" result="n"/><feDisplacementMap in="SourceGraphic" in2="n" scale="20" xChannelSelector="R" yChannelSelector="G"/></filter><filter id="ink_flower"><feTurbulence type="fractalNoise" baseFrequency="0.7 0.9" numOctaves="2" seed="10" result="n"/><feColorMatrix in="n" type="matrix" values="0 0 0 0 0  0 0 0 0 0  0 0 0 0 0  0 0 0 0.5 0" result="a"/><feComposite in="a" in2="SourceAlpha" operator="in"/></filter><filter id="paper_flower"><feTurbulence type="fractalNoise" baseFrequency="0.5" numOctaves="3" seed="17"/><feColorMatrix type="saturate" values="0"/><feComponentTransfer><feFuncA type="table" tableValues="0 0.7"/></feComponentTransfer></filter></defs><rect width="440" height="792" fill="#F7DCE9"/><g filter="url(#rough_flower)" fill="#2E8E5C" opacity="0.5"><ellipse cx="76" cy="180" rx="30" ry="13" transform="rotate(40 76 180)"/><ellipse cx="362" cy="64" rx="30" ry="13" transform="rotate(-30 362 64)"/><ellipse cx="252" cy="200" rx="28" ry="12" transform="rotate(15 252 200)"/></g><g filter="url(#rough_flower)"><g transform="translate(4,5)" opacity="0.32" fill="#C03B73"><ellipse cx="124" cy="92" rx="30" ry="52" transform="rotate(0 124 92)"/><ellipse cx="124" cy="92" rx="30" ry="52" transform="rotate(72 124 92)"/><ellipse cx="124" cy="92" rx="30" ry="52" transform="rotate(144 124 92)"/><ellipse cx="124" cy="92" rx="30" ry="52" transform="rotate(216 124 92)"/><ellipse cx="124" cy="92" rx="30" ry="52" transform="rotate(288 124 92)"/></g><g fill="#E2568F"><ellipse cx="124" cy="92" rx="30" ry="52" transform="rotate(0 124 92)"/><ellipse cx="124" cy="92" rx="30" ry="52" transform="rotate(72 124 92)"/><ellipse cx="124" cy="92" rx="30" ry="52" transform="rotate(144 124 92)"/><ellipse cx="124" cy="92" rx="30" ry="52" transform="rotate(216 124 92)"/><ellipse cx="124" cy="92" rx="30" ry="52" transform="rotate(288 124 92)"/></g><circle cx="124" cy="92" r="20.0" fill="#F4C84A"/><g transform="translate(4,5)" opacity="0.32" fill="#D9712F"><ellipse cx="302" cy="124" rx="25.5" ry="44.199999999999996" transform="rotate(0 302 124)"/><ellipse cx="302" cy="124" rx="25.5" ry="44.199999999999996" transform="rotate(72 302 124)"/><ellipse cx="302" cy="124" rx="25.5" ry="44.199999999999996" transform="rotate(144 302 124)"/><ellipse cx="302" cy="124" rx="25.5" ry="44.199999999999996" transform="rotate(216 302 124)"/><ellipse cx="302" cy="124" rx="25.5" ry="44.199999999999996" transform="rotate(288 302 124)"/></g><g fill="#F2934F"><ellipse cx="302" cy="124" rx="25.5" ry="44.199999999999996" transform="rotate(0 302 124)"/><ellipse cx="302" cy="124" rx="25.5" ry="44.199999999999996" transform="rotate(72 302 124)"/><ellipse cx="302" cy="124" rx="25.5" ry="44.199999999999996" transform="rotate(144 302 124)"/><ellipse cx="302" cy="124" rx="25.5" ry="44.199999999999996" transform="rotate(216 302 124)"/><ellipse cx="302" cy="124" rx="25.5" ry="44.199999999999996" transform="rotate(288 302 124)"/></g><circle cx="302" cy="124" r="17.0" fill="#F4C84A"/><g transform="translate(4,5)" opacity="0.32" fill="#C9518A"><ellipse cx="214" cy="56" rx="21" ry="36.4" transform="rotate(0 214 56)"/><ellipse cx="214" cy="56" rx="21" ry="36.4" transform="rotate(72 214 56)"/><ellipse cx="214" cy="56" rx="21" ry="36.4" transform="rotate(144 214 56)"/><ellipse cx="214" cy="56" rx="21" ry="36.4" transform="rotate(216 214 56)"/><ellipse cx="214" cy="56" rx="21" ry="36.4" transform="rotate(288 214 56)"/></g><g fill="#EA6FA8"><ellipse cx="214" cy="56" rx="21" ry="36.4" transform="rotate(0 214 56)"/><ellipse cx="214" cy="56" rx="21" ry="36.4" transform="rotate(72 214 56)"/><ellipse cx="214" cy="56" rx="21" ry="36.4" transform="rotate(144 214 56)"/><ellipse cx="214" cy="56" rx="21" ry="36.4" transform="rotate(216 214 56)"/><ellipse cx="214" cy="56" rx="21" ry="36.4" transform="rotate(288 214 56)"/></g><circle cx="214" cy="56" r="14.0" fill="#F4C84A"/></g><rect width="440" height="792" filter="url(#paper_flower)" opacity="0.08" style="mix-blend-mode:multiply"/></svg>