<svg xmlns="http://www.w3.org/2000/svg" viewBox="0 0 440 792" preserveAspectRatio="xMidYMid slice"><defs><filter id="rough_felt" x="-25%" y="-25%" width="150%" height="150%"><feTurbulence type="fractalNoise" baseFrequency="0.016" numOctaves="3" seed="23" result="n"/><feDisplacementMap in="SourceGraphic" in2="n" scale="11" xChannelSelector="R" yChannelSelector="G"/></filter><filter id="roughBig_felt" x="-30%" y="-30%" width="160%" height="160%"><feTurbulence type="fractalNoise" baseFrequency="0.009" numOctaves="2" seed="28" result="n"/><feDisplacementMap in="SourceGraphic" in2="n" scale="20" xChannelSelector="R" yChannelSelector="G"/></filter><filter id="ink_felt"><feTurbulence type="fractalNoise" baseFrequency="0.7 0.9" numOctaves="2" seed="25" result="n"/><feColorMatrix in="n" type="matrix" values="0 0 0 0 0  0 0 0 0 0  0 0 0 0 0  0 0 0 0.5 0" result="a"/><feComposite in="a" in2="SourceAlpha" operator="in"/></filter><filter id="paper_felt"><feTurbulence type="fractalNoise" baseFrequency="0.5" numOctaves="3" seed="32"/><feColorMatrix type="saturate" values="0"/><feComponentTransfer><feFuncA type="table" tableValues="0 0.7"/></feComponentTransfer></filter></defs><rect width="440" height="792" fill="#1C5A3E"/><g filter="url(#rough_felt)"><line x1="-56" y1="-24" x2="208" y2="240" stroke="#16553A" stroke-width="7" opacity="0.22"/><line x1="0" y1="-24" x2="264" y2="240" stroke="#16553A" stroke-width="7" opacity="0.22"/><line x1="56" y1="-24" x2="320" y2="240" stroke="#16553A" stroke-width="7" opacity="0.22"/><line x1="112" y1="-24" x2="376" y2="240" stroke="#16553A" stroke-width="7" opacity="0.22"/><line x1="168" y1="-24" x2="432" y2="240" stroke="#16553A" stroke-width="7" opacity="0.22"/><line x1="224" y1="-24" x2="488" y2="240" stroke="#16553A" stroke-width="7" opacity="0.22"/><line x1="280" y1="-24" x2="544" y2="240" stroke="#16553A" stroke-width="7" opacity="0.22"/><line x1="336" y1="-24" x2="600" y2="240" stroke="#16553A" stroke-width="7" opacity="0.22"/><line x1="392" y1="-24" x2="656" y2="240" stroke="#16553A" stroke-width="7" opacity="0.22"/><line x1="448" y1="-24" x2="712" y2="240" stroke="#16553A" stroke-width="7" opacity="0.22"/></g><g filter="url(#roughBig_felt)"><g transform="rotate(-9 92 64)"><rect x="74" y="40" width="36" height="48" rx="6" fill="#F7F2E3"/><rect x="74" y="40" width="36" height="48" rx="6" fill="none" stroke="#CFC4A6" stroke-width="2.5"/><circle cx="92" cy="64" r="10" fill="none" stroke="#2E86D4" stroke-width="4"/><circle cx="92" cy="64" r="3" fill="#2E86D4"/></g><g transform="rotate(7 210 50)"><rect x="192" y="26" width="36" height="48" rx="6" fill="#F7F2E3"/><rect x="192" y="26" width="36" height="48" rx="6" fill="none" stroke="#CFC4A6" stroke-width="2.5"/><g fill="#1F8A5B"><rect x="203" y="37" width="5" height="26" rx="2.5"/><rect x="212" y="37" width="5" height="26" rx="2.5"/></g></g><g transform="rotate(-5 320 76)"><rect x="302" y="52" width="36" height="48" rx="6" fill="#F7F2E3"/><rect x="302" y="52" width="36" height="48" rx="6" fill="none" stroke="#CFC4A6" stroke-width="2.5"/><circle cx="320" cy="76" r="10" fill="none" stroke="#C0392B" stroke-width="4"/><circle cx="320" cy="76" r="3" fill="#C0392B"/></g><g transform="rotate(12 168 174)"><rect x="150" y="150" width="36" height="48" rx="6" fill="#F7F2E3"/><rect x="150" y="150" width="36" height="48" rx="6" fill="none" stroke="#CFC4A6" stroke-width="2.5"/><g fill="#E0A21A"><rect x="161" y="161" width="5" height="26" rx="2.5"/><rect x="170" y="161" width="5" height="26" rx="2.5"/></g></g></g><rect width="440" height="792" filter="url(#paper_felt)" opacity="0.08" style="mix-blend-mode:multiply"/></svg>