<svg xmlns="http://www.w3.org/2000/svg" viewBox="0 0 440 792" preserveAspectRatio="xMidYMid slice">
<defs>
  <filter id="rough_joker" x="-25%" y="-25%" width="150%" height="150%">
    <feTurbulence type="fractalNoise" baseFrequency="0.016" numOctaves="3" seed="21" result="n"/>
    <feDisplacementMap in="SourceGraphic" in2="n" scale="11" xChannelSelector="R" yChannelSelector="G"/></filter>
  <filter id="roughBig_joker" x="-30%" y="-30%" width="160%" height="160%">
    <feTurbulence type="fractalNoise" baseFrequency="0.009" numOctaves="2" seed="26" result="n"/>
    <feDisplacementMap in="SourceGraphic" in2="n" scale="20" xChannelSelector="R" yChannelSelector="G"/></filter>
  <filter id="ink_joker">
    <feTurbulence type="fractalNoise" baseFrequency="0.7 0.9" numOctaves="2" seed="23" result="n"/>
    <feColorMatrix in="n" type="matrix" values="0 0 0 0 0  0 0 0 0 0  0 0 0 0 0  0 0 0 0.5 0" result="a"/>
    <feComposite in="a" in2="SourceAlpha" operator="in"/></filter>
  <filter id="paper_joker">
    <feTurbulence type="fractalNoise" baseFrequency="0.5" numOctaves="3" seed="30"/>
    <feColorMatrix type="saturate" values="0"/>
    <feComponentTransfer><feFuncA type="table" tableValues="0 0.7"/></feComponentTransfer></filter></defs><rect width="440" height="792" fill="#6A3FC0"/><g filter="url(#rough_joker)"><path d="M156.0,177.0L175.7,229.8L232.1,232.3L188.0,267.4L203.0,321.7L156.0,290.6L109.0,321.7L124.0,267.4L79.9,232.3L136.3,229.8Z" fill="#3A1E78" opacity="0.5"/><path d="M341.0,518.0L354.3,553.7L392.4,555.3L362.6,579.0L372.7,615.7L341.0,594.7L309.3,615.7L319.4,579.0L289.6,555.3L327.7,553.7Z" fill="#3A1E78" opacity="0.5"/><path d="M101.0,609.0L110.4,634.1L137.1,635.3L116.2,651.9L123.3,677.7L101.0,663.0L78.7,677.7L85.8,651.9L64.9,635.3L91.6,634.1Z" fill="#3A1E78" opacity="0.5"/><path d="M376.0,140.0L383.9,161.1L406.4,162.1L388.8,176.2L394.8,197.9L376.0,185.4L357.2,197.9L363.2,176.2L345.6,162.1L368.1,161.1Z" fill="#3A1E78" opacity="0.5"/><path d="M177.9,266.9L183.0,280.2L197.2,280.9L186.0,289.8L189.9,303.5L177.9,295.7L166.0,303.5L169.8,289.8L158.7,280.9L172.9,280.2Z" fill="#3A1E78" opacity="0.5"/><path d="M102.3,584.5L106.9,596.7L119.9,597.3L109.7,605.4L113.2,617.9L102.3,610.7L91.5,617.9L94.9,605.4L84.8,597.3L97.8,596.7Z" fill="#3A1E78" opacity="0.5"/><path d="M77.2,630.0L84.8,650.4L106.5,651.3L89.5,664.8L95.3,685.8L77.2,673.8L59.0,685.8L64.8,664.8L47.8,651.3L69.6,650.4Z" fill="#3A1E78" opacity="0.5"/><path d="M395.6,469.0L402.3,486.8L421.3,487.7L406.4,499.5L411.5,517.9L395.6,507.3L379.7,517.9L384.8,499.5L369.9,487.7L388.9,486.8Z" fill="#3A1E78" opacity="0.5"/><path d="M41.1,290.2L46.6,305.0L62.3,305.6L50.0,315.5L54.2,330.6L41.1,321.9L27.9,330.6L32.1,315.5L19.8,305.6L35.6,305.0Z" fill="#3A1E78" opacity="0.5"/><path d="M217.1,411.8L223.2,428.1L240.7,428.9L227.0,439.8L231.7,456.6L217.1,447.0L202.5,456.6L207.2,439.8L193.5,428.9L211.0,428.1Z" fill="#3A1E78" opacity="0.5"/><path d="M210.0,105.3L216.9,123.6L236.4,124.5L221.1,136.7L226.3,155.5L210.0,144.7L193.7,155.5L198.9,136.7L183.6,124.5L203.2,123.6Z" fill="#3A1E78" opacity="0.5"/><path d="M266.2,123.8L270.8,136.2L284.0,136.8L273.6,145.0L277.2,157.7L266.2,150.4L255.1,157.7L258.7,145.0L248.3,136.8L261.5,136.2Z" fill="#3A1E78" opacity="0.5"/><path d="M265.0,330.4L272.9,351.5L295.4,352.5L277.8,366.5L283.8,388.2L265.0,375.8L246.3,388.2L252.3,366.5L234.7,352.5L257.2,351.5Z" fill="#3A1E78" opacity="0.5"/><path d="M269.1,569.9L273.8,582.5L287.2,583.1L276.7,591.4L280.3,604.3L269.1,596.9L257.9,604.3L261.5,591.4L251.0,583.1L264.4,582.5Z" fill="#3A1E78" opacity="0.5"/><path d="M331.9,144.9L337.2,158.9L352.1,159.5L340.4,168.8L344.4,183.3L331.9,175.0L319.4,183.3L323.4,168.8L311.7,159.5L326.7,158.9Z" fill="#3A1E78" opacity="0.5"/><path d="M409.9,626.4L416.8,644.8L436.4,645.6L421.1,657.9L426.3,676.8L409.9,665.9L393.6,676.8L398.8,657.9L383.5,645.6L403.1,644.8Z" fill="#3A1E78" opacity="0.5"/><path d="M300.9,274.6L306.3,289.0L321.7,289.7L309.6,299.3L313.8,314.1L300.9,305.6L288.1,314.1L292.2,299.3L280.1,289.7L295.5,289.0Z" fill="#3A1E78" opacity="0.5"/></g><g filter="url(#rough_joker)"><path d="M150.0,170.0L169.7,222.8L226.1,225.3L182.0,260.4L197.0,314.7L150.0,283.6L103.0,314.7L118.0,260.4L73.9,225.3L130.3,222.8Z" fill="#F4C84A"/><path d="M335.0,511.0L348.3,546.7L386.4,548.3L356.6,572.0L366.7,608.7L335.0,587.7L303.3,608.7L313.4,572.0L283.6,548.3L321.7,546.7Z" fill="#FF6FA8"/><path d="M95.0,602.0L104.4,627.1L131.1,628.3L110.2,644.9L117.3,670.7L95.0,656.0L72.7,670.7L79.8,644.9L58.9,628.3L85.6,627.1Z" fill="#3FD9D9"/><path d="M370.0,133.0L377.9,154.1L400.4,155.1L382.8,169.2L388.8,190.9L370.0,178.4L351.2,190.9L357.2,169.2L339.6,155.1L362.1,154.1Z" fill="#EFE4FB"/><path d="M117.7,169.5L121.4,179.5L132.1,180.0L123.7,186.6L126.6,196.9L117.7,191.0L108.8,196.9L111.6,186.6L103.3,180.0L113.9,179.5Z" fill="#EFE4FB"/><path d="M171.9,259.9L177.0,273.2L191.2,273.9L180.0,282.8L183.9,296.5L171.9,288.7L160.0,296.5L163.8,282.8L152.7,273.9L166.9,273.2Z" fill="#FFFFFF"/><path d="M96.3,577.5L100.9,589.7L113.9,590.3L103.7,598.4L107.2,610.9L96.3,603.7L85.5,610.9L88.9,598.4L78.8,590.3L91.8,589.7Z" fill="#F4C84A"/><path d="M71.2,623.0L78.8,643.4L100.5,644.3L83.5,657.8L89.3,678.8L71.2,666.8L53.0,678.8L58.8,657.8L41.8,644.3L63.6,643.4Z" fill="#FF6FA8"/><path d="M389.6,462.0L396.3,479.8L415.3,480.7L400.4,492.5L405.5,510.9L389.6,500.3L373.7,510.9L378.8,492.5L363.9,480.7L382.9,479.8Z" fill="#FF6FA8"/><path d="M35.1,283.2L40.6,298.0L56.3,298.6L44.0,308.5L48.2,323.6L35.1,314.9L21.9,323.6L26.1,308.5L13.8,298.6L29.6,298.0Z" fill="#3FD9D9"/><path d="M211.1,404.8L217.2,421.1L234.7,421.9L221.0,432.8L225.7,449.6L211.1,440.0L196.5,449.6L201.2,432.8L187.5,421.9L205.0,421.1Z" fill="#3FD9D9"/><path d="M204.0,98.3L210.9,116.6L230.4,117.5L215.1,129.7L220.3,148.5L204.0,137.7L187.7,148.5L192.9,129.7L177.6,117.5L197.2,116.6Z" fill="#FF6FA8"/><path d="M260.2,116.8L264.8,129.2L278.0,129.8L267.6,138.0L271.2,150.7L260.2,143.4L249.1,150.7L252.7,138.0L242.3,129.8L255.5,129.2Z" fill="#F4C84A"/><path d="M259.0,323.4L266.9,344.5L289.4,345.5L271.8,359.5L277.8,381.2L259.0,368.8L240.3,381.2L246.3,359.5L228.7,345.5L251.2,344.5Z" fill="#3FD9D9"/><path d="M263.1,562.9L267.8,575.5L281.2,576.1L270.7,584.4L274.3,597.3L263.1,589.9L251.9,597.3L255.5,584.4L245.0,576.1L258.4,575.5Z" fill="#EFE4FB"/><path d="M325.9,137.9L331.2,151.9L346.1,152.5L334.4,161.8L338.4,176.3L325.9,168.0L313.4,176.3L317.4,161.8L305.7,152.5L320.7,151.9Z" fill="#F4C84A"/><path d="M239.8,693.8L243.4,703.5L253.7,703.9L245.6,710.3L248.4,720.2L239.8,714.6L231.2,720.2L233.9,710.3L225.9,703.9L236.2,703.5Z" fill="#FF6FA8"/><path d="M403.9,619.4L410.8,637.8L430.4,638.6L415.1,650.9L420.3,669.8L403.9,658.9L387.6,669.8L392.8,650.9L377.5,638.6L397.1,637.8Z" fill="#FF6FA8"/><path d="M294.9,267.6L300.3,282.0L315.7,282.7L303.6,292.3L307.8,307.1L294.9,298.6L282.1,307.1L286.2,292.3L274.1,282.7L289.5,282.0Z" fill="#F4C84A"/></g><g filter="url(#rough_joker)"><circle cx="329.8" cy="460.8" r="1.4" fill="#FFFFFF" opacity="0.76"/><circle cx="126.0" cy="77.9" r="2.6" fill="#FFFFFF" opacity="0.71"/><circle cx="205.5" cy="174.1" r="3.8" fill="#FFFFFF" opacity="0.75"/><circle cx="316.1" cy="215.2" r="1.1" fill="#FFFFFF" opacity="0.81"/><circle cx="317.0" cy="198.2" r="1.2" fill="#FFFFFF" opacity="0.55"/><circle cx="386.3" cy="125.2" r="1.2" fill="#FFFFFF" opacity="0.72"/><circle cx="95.3" cy="307.0" r="1.5" fill="#FFFFFF" opacity="0.43"/><circle cx="400.9" cy="628.1" r="2.1" fill="#FFFFFF" opacity="0.81"/><circle cx="393.6" cy="270.0" r="2.3" fill="#FFFFFF" opacity="0.88"/><circle cx="112.5" cy="381.0" r="2.1" fill="#FFFFFF" opacity="0.88"/><circle cx="164.4" cy="497.0" r="1.6" fill="#FFFFFF" opacity="0.41"/><circle cx="438.2" cy="309.4" r="3.3" fill="#FFFFFF" opacity="0.46"/><circle cx="313.5" cy="356.9" r="1.9" fill="#FFFFFF" opacity="0.72"/><circle cx="232.1" cy="168.9" r="1.2" fill="#FFFFFF" opacity="0.46"/><circle cx="212.3" cy="505.7" r="1.7" fill="#FFFFFF" opacity="0.53"/><circle cx="236.0" cy="699.4" r="1.5" fill="#FFFFFF" opacity="0.58"/><circle cx="66.6" cy="511.8" r="1.9" fill="#FFFFFF" opacity="0.78"/><circle cx="127.8" cy="285.9" r="2.1" fill="#FFFFFF" opacity="0.44"/></g><rect width="440" height="792" fill="#6A3FC0" opacity="0.45"/><rect width="440" height="792" filter="url(#paper_joker)" opacity="0.1" style="mix-blend-mode:multiply"/></svg>