<svg xmlns="http://www.w3.org/2000/svg" viewBox="0 0 440 792" preserveAspectRatio="xMidYMid slice"><defs><filter id="rough_joker" x="-25%" y="-25%" width="150%" height="150%"><feTurbulence type="fractalNoise" baseFrequency="0.016" numOctaves="3" seed="21" result="n"/><feDisplacementMap in="SourceGraphic" in2="n" scale="11" xChannelSelector="R" yChannelSelector="G"/></filter><filter id="roughBig_joker" x="-30%" y="-30%" width="160%" height="160%"><feTurbulence type="fractalNoise" baseFrequency="0.009" numOctaves="2" seed="26" result="n"/><feDisplacementMap in="SourceGraphic" in2="n" scale="20" xChannelSelector="R" yChannelSelector="G"/></filter><filter id="ink_joker"><feTurbulence type="fractalNoise" baseFrequency="0.7 0.9" numOctaves="2" seed="23" result="n"/><feColorMatrix in="n" type="matrix" values="0 0 0 0 0  0 0 0 0 0  0 0 0 0 0  0 0 0 0.5 0" result="a"/><feComposite in="a" in2="SourceAlpha" operator="in"/></filter><filter id="paper_joker"><feTurbulence type="fractalNoise" baseFrequency="0.5" numOctaves="3" seed="30"/><feColorMatrix type="saturate" values="0"/><feComponentTransfer><feFuncA type="table" tableValues="0 0.7"/></feComponentTransfer></filter></defs><rect width="440" height="792" fill="#6A3FC0"/><g filter="url(#rough_joker)"><path d="M155.0,46.0L169.3,84.3L210.2,86.1L178.2,111.5L189.1,150.9L155.0,128.4L120.9,150.9L131.8,111.5L99.8,86.1L140.7,84.3Z" fill="#3A1E78" opacity="0.5"/><path d="M150.0,40.0L164.3,78.3L205.2,80.1L173.2,105.5L184.1,144.9L150.0,122.4L115.9,144.9L126.8,105.5L94.8,80.1L135.7,78.3Z" fill="#F4C84A"/><path d="M329.0,90.0L338.9,116.4L367.0,117.6L345.0,135.2L352.5,162.4L329.0,146.8L305.5,162.4L313.0,135.2L291.0,117.6L319.1,116.4Z" fill="#3A1E78" opacity="0.5"/><path d="M324.0,84.0L333.9,110.4L362.0,111.6L340.0,129.2L347.5,156.4L324.0,140.8L300.5,156.4L308.0,129.2L286.0,111.6L314.1,110.4Z" fill="#FF6FA8"/><path d="M259.0,34.0L265.9,52.5L285.6,53.3L270.2,65.6L275.5,84.7L259.0,73.8L242.5,84.7L247.8,65.6L232.4,53.3L252.1,52.5Z" fill="#3A1E78" opacity="0.5"/><path d="M254.0,28.0L260.9,46.5L280.6,47.3L265.2,59.6L270.5,78.7L254.0,67.8L237.5,78.7L242.8,59.6L227.4,47.3L247.1,46.5Z" fill="#3FD9D9"/><path d="M379.0,56.0L384.4,70.5L399.9,71.2L387.8,80.9L391.9,95.8L379.0,87.2L366.1,95.8L370.2,80.9L358.1,71.2L373.6,70.5Z" fill="#3A1E78" opacity="0.5"/><path d="M374.0,50.0L379.4,64.5L394.9,65.2L382.8,74.9L386.9,89.8L374.0,81.2L361.1,89.8L365.2,74.9L353.1,65.2L368.6,64.5Z" fill="#EFE4FB"/></g><g filter="url(#rough_joker)"><circle cx="107.5" cy="41.8" r="1.6" fill="#FFFFFF" opacity="0.62"/><circle cx="167.1" cy="73.8" r="2.2" fill="#FFFFFF" opacity="0.84"/><circle cx="84.0" cy="179.7" r="2.0" fill="#FFFFFF" opacity="0.46"/><circle cx="56.3" cy="199.1" r="3.4" fill="#FFFFFF" opacity="0.55"/><circle cx="406.5" cy="143.8" r="3.0" fill="#FFFFFF" opacity="0.53"/><circle cx="16.6" cy="82.3" r="2.4" fill="#FFFFFF" opacity="0.78"/><circle cx="210.2" cy="123.9" r="2.7" fill="#FFFFFF" opacity="0.76"/><circle cx="202.4" cy="22.1" r="3.0" fill="#FFFFFF" opacity="0.54"/><circle cx="264.2" cy="25.3" r="2.0" fill="#FFFFFF" opacity="0.40"/><circle cx="262.9" cy="99.0" r="3.5" fill="#FFFFFF" opacity="0.72"/><circle cx="267.4" cy="175.0" r="2.0" fill="#FFFFFF" opacity="0.65"/><circle cx="336.5" cy="33.2" r="2.3" fill="#FFFFFF" opacity="0.41"/><circle cx="241.8" cy="217.4" r="1.5" fill="#FFFFFF" opacity="0.51"/><circle cx="422.3" cy="196.9" r="3.1" fill="#FFFFFF" opacity="0.52"/></g><rect width="440" height="792" filter="url(#paper_joker)" opacity="0.08" style="mix-blend-mode:multiply"/></svg>