<svg xmlns="http://www.w3.org/2000/svg" viewBox="0 0 440 792" preserveAspectRatio="xMidYMid slice">
<defs>
  <filter id="rough_jade" x="-25%" y="-25%" width="150%" height="150%">
    <feTurbulence type="fractalNoise" baseFrequency="0.016" numOctaves="3" seed="3" result="n"/>
    <feDisplacementMap in="SourceGraphic" in2="n" scale="11" xChannelSelector="R" yChannelSelector="G"/></filter>
  <filter id="roughBig_jade" x="-30%" y="-30%" width="160%" height="160%">
    <feTurbulence type="fractalNoise" baseFrequency="0.009" numOctaves="2" seed="8" result="n"/>
    <feDisplacementMap in="SourceGraphic" in2="n" scale="20" xChannelSelector="R" yChannelSelector="G"/></filter>
  <filter id="ink_jade">
    <feTurbulence type="fractalNoise" baseFrequency="0.7 0.9" numOctaves="2" seed="5" result="n"/>
    <feColorMatrix in="n" type="matrix" values="0 0 0 0 0  0 0 0 0 0  0 0 0 0 0  0 0 0 0.5 0" result="a"/>
    <feComposite in="a" in2="SourceAlpha" operator="in"/></filter>
  <filter id="paper_jade">
    <feTurbulence type="fractalNoise" baseFrequency="0.5" numOctaves="3" seed="12"/>
    <feColorMatrix type="saturate" values="0"/>
    <feComponentTransfer><feFuncA type="table" tableValues="0 0.7"/></feComponentTransfer></filter></defs><rect width="440" height="792" fill="#ECE6D2"/>
    <circle cx="300" cy="250" r="96" fill="#C9512E" opacity="0.9" filter="url(#roughBig_jade)" transform="translate(7,8)"/>
    <circle cx="300" cy="250" r="96" fill="#E8B23C" filter="url(#roughBig_jade)"/>
    <g filter="url(#rough_jade)">
      <path d="M -30 560 C 120 500, 250 540, 470 510 L 470 822 L -30 822 Z" fill="#2E7E5C"/>
      <path d="M -30 640 C 140 590, 300 630, 470 600 L 470 822 L -30 822 Z" fill="#1F6B4E"/>
      <path d="M -30 720 C 120 690, 320 720, 470 700 L 470 822 L -30 822 Z" fill="#16513B"/></g>
    <g filter="url(#rough_jade)" fill="none" stroke="#1F6B4E" stroke-width="6" stroke-linecap="round" opacity="0.5">
      <path d="M 40 170 q 80 -26 150 0"/><path d="M 70 210 q 70 -22 130 0"/></g><rect width="440" height="792" filter="url(#paper_jade)" opacity="0.08" style="mix-blend-mode:multiply"/></svg>