<svg xmlns="http://www.w3.org/2000/svg" viewBox="0 0 440 792" preserveAspectRatio="xMidYMid slice"><defs><filter id="rough_jade" x="-25%" y="-25%" width="150%" height="150%"><feTurbulence type="fractalNoise" baseFrequency="0.016" numOctaves="3" seed="3" result="n"/><feDisplacementMap in="SourceGraphic" in2="n" scale="11" xChannelSelector="R" yChannelSelector="G"/></filter><filter id="roughBig_jade" x="-30%" y="-30%" width="160%" height="160%"><feTurbulence type="fractalNoise" baseFrequency="0.009" numOctaves="2" seed="8" result="n"/><feDisplacementMap in="SourceGraphic" in2="n" scale="20" xChannelSelector="R" yChannelSelector="G"/></filter><filter id="ink_jade"><feTurbulence type="fractalNoise" baseFrequency="0.7 0.9" numOctaves="2" seed="5" result="n"/><feColorMatrix in="n" type="matrix" values="0 0 0 0 0  0 0 0 0 0  0 0 0 0 0  0 0 0 0.5 0" result="a"/><feComposite in="a" in2="SourceAlpha" operator="in"/></filter><filter id="paper_jade"><feTurbulence type="fractalNoise" baseFrequency="0.5" numOctaves="3" seed="12"/><feColorMatrix type="saturate" values="0"/><feComponentTransfer><feFuncA type="table" tableValues="0 0.7"/></feComponentTransfer></filter></defs><rect width="440" height="792" fill="#ECE6D2"/><g filter="url(#rough_jade)"><line x1="374.0" y1="94.0" x2="428.0" y2="94.0" stroke="#F5A524" stroke-width="6" opacity="0.7"/><line x1="372.4" y1="106.4" x2="403.3" y2="114.7" stroke="#F5A524" stroke-width="3" opacity="0.38"/><line x1="367.6" y1="118.0" x2="414.3" y2="145.0" stroke="#F5A524" stroke-width="6" opacity="0.7"/><line x1="359.9" y1="127.9" x2="382.6" y2="150.6" stroke="#F5A524" stroke-width="3" opacity="0.38"/><line x1="350.0" y1="135.6" x2="377.0" y2="182.3" stroke="#F5A524" stroke-width="6" opacity="0.7"/><line x1="338.4" y1="140.4" x2="346.7" y2="171.3" stroke="#F5A524" stroke-width="3" opacity="0.38"/><line x1="326.0" y1="142.0" x2="326.0" y2="196.0" stroke="#F5A524" stroke-width="6" opacity="0.7"/><line x1="313.6" y1="140.4" x2="305.3" y2="171.3" stroke="#F5A524" stroke-width="3" opacity="0.38"/><line x1="302.0" y1="135.6" x2="275.0" y2="182.3" stroke="#F5A524" stroke-width="6" opacity="0.7"/><line x1="292.1" y1="127.9" x2="269.4" y2="150.6" stroke="#F5A524" stroke-width="3" opacity="0.38"/><line x1="284.4" y1="118.0" x2="237.7" y2="145.0" stroke="#F5A524" stroke-width="6" opacity="0.7"/><line x1="279.6" y1="106.4" x2="248.7" y2="114.7" stroke="#F5A524" stroke-width="3" opacity="0.38"/><line x1="278.0" y1="94.0" x2="224.0" y2="94.0" stroke="#F5A524" stroke-width="6" opacity="0.7"/><line x1="279.6" y1="81.6" x2="248.7" y2="73.3" stroke="#F5A524" stroke-width="3" opacity="0.38"/><line x1="284.4" y1="70.0" x2="237.7" y2="43.0" stroke="#F5A524" stroke-width="6" opacity="0.7"/><line x1="292.1" y1="60.1" x2="269.4" y2="37.4" stroke="#F5A524" stroke-width="3" opacity="0.38"/><line x1="302.0" y1="52.4" x2="275.0" y2="5.7" stroke="#F5A524" stroke-width="6" opacity="0.7"/><line x1="313.6" y1="47.6" x2="305.3" y2="16.7" stroke="#F5A524" stroke-width="3" opacity="0.38"/><line x1="326.0" y1="46.0" x2="326.0" y2="-8.0" stroke="#F5A524" stroke-width="6" opacity="0.7"/><line x1="338.4" y1="47.6" x2="346.7" y2="16.7" stroke="#F5A524" stroke-width="3" opacity="0.38"/><line x1="350.0" y1="52.4" x2="377.0" y2="5.7" stroke="#F5A524" stroke-width="6" opacity="0.7"/><line x1="359.9" y1="60.1" x2="382.6" y2="37.4" stroke="#F5A524" stroke-width="3" opacity="0.38"/><line x1="367.6" y1="70.0" x2="414.3" y2="43.0" stroke="#F5A524" stroke-width="6" opacity="0.7"/><line x1="372.4" y1="81.6" x2="403.3" y2="73.3" stroke="#F5A524" stroke-width="3" opacity="0.38"/></g><g filter="url(#roughBig_jade)"><circle cx="326" cy="94" r="46" fill="#2E7E5C"/><circle cx="326" cy="94" r="46" fill="none" stroke="#16513B" stroke-width="6"/><circle cx="326" cy="94" r="18" fill="#ECE6D2"/><circle cx="326" cy="94" r="18" fill="none" stroke="#16513B" stroke-width="5"/></g><g filter="url(#rough_jade)"><circle cx="59.3" cy="120.4" r="4.5" fill="#1F6B4E"/><rect x="216.2" y="136.5" width="13.3" height="14.7" rx="3" fill="#E2568F" transform="rotate(26.3 216.2 136.5)"/><circle cx="136.1" cy="155.7" r="3.7" fill="#10B39A"/><circle cx="89.3" cy="70.0" r="3.9" fill="#E2568F"/><circle cx="102.8" cy="104.0" r="6.1" fill="#E2568F"/><rect x="228.4" y="182.2" width="11.4" height="15.9" rx="3" fill="#1F6B4E" transform="rotate(-27.4 228.4 182.2)"/><circle cx="45.8" cy="91.2" r="5.7" fill="#F5A524"/><rect x="1.1" y="96.6" width="11.4" height="22.8" rx="3" fill="#10B39A" transform="rotate(-30.4 1.1 96.6)"/><circle cx="71.5" cy="140.3" r="5.9" fill="#F5A524"/><rect x="184.7" y="27.7" width="13.9" height="16.5" rx="3" fill="#10B39A" transform="rotate(-29.2 184.7 27.7)"/><circle cx="239.1" cy="96.4" r="3.6" fill="#F5A524"/><circle cx="230.4" cy="100.5" r="5.0" fill="#E2568F"/><rect x="136.1" y="45.0" width="10.6" height="16.3" rx="3" fill="#1F6B4E" transform="rotate(-21.2 136.1 45.0)"/><circle cx="155.1" cy="82.4" r="4.6" fill="#1F6B4E"/><rect x="40.1" y="154.9" width="9.4" height="17.9" rx="3" fill="#10B39A" transform="rotate(-2.9 40.1 154.9)"/><rect x="202.4" y="202.2" width="8.2" height="19.4" rx="3" fill="#10B39A" transform="rotate(-43.0 202.4 202.2)"/><circle cx="115.5" cy="188.0" r="3.5" fill="#1F6B4E"/></g><g filter="url(#rough_jade)" fill="none" stroke-width="6" stroke-linecap="round" opacity="0.5"><path d="M30 60 q44 30 26 86" stroke="#E2568F"/><path d="M34 196 q50 -24 100 4" stroke="#1F6B4E"/></g><rect width="440" height="792" filter="url(#paper_jade)" opacity="0.08" style="mix-blend-mode:multiply"/></svg>