<svg xmlns="http://www.w3.org/2000/svg" viewBox="0 0 440 792" preserveAspectRatio="xMidYMid slice">
<defs>
  <filter id="rough_midnight" x="-25%" y="-25%" width="150%" height="150%">
    <feTurbulence type="fractalNoise" baseFrequency="0.016" numOctaves="3" seed="17" result="n"/>
    <feDisplacementMap in="SourceGraphic" in2="n" scale="11" xChannelSelector="R" yChannelSelector="G"/></filter>
  <filter id="roughBig_midnight" x="-30%" y="-30%" width="160%" height="160%">
    <feTurbulence type="fractalNoise" baseFrequency="0.009" numOctaves="2" seed="22" result="n"/>
    <feDisplacementMap in="SourceGraphic" in2="n" scale="20" xChannelSelector="R" yChannelSelector="G"/></filter>
  <filter id="ink_midnight">
    <feTurbulence type="fractalNoise" baseFrequency="0.7 0.9" numOctaves="2" seed="19" result="n"/>
    <feColorMatrix in="n" type="matrix" values="0 0 0 0 0  0 0 0 0 0  0 0 0 0 0  0 0 0 0.5 0" result="a"/>
    <feComposite in="a" in2="SourceAlpha" operator="in"/></filter>
  <filter id="paper_midnight">
    <feTurbulence type="fractalNoise" baseFrequency="0.5" numOctaves="3" seed="26"/>
    <feColorMatrix type="saturate" values="0"/>
    <feComponentTransfer><feFuncA type="table" tableValues="0 0.7"/></feComponentTransfer></filter></defs><rect width="440" height="792" fill="#0A0E1C"/><g filter="url(#rough_midnight)"><circle cx="106.8" cy="649.9" r="1.5" fill="#ECE7D6" opacity="0.48"/><circle cx="314.2" cy="263.7" r="1.9" fill="#ECE7D6" opacity="0.43"/><circle cx="68.6" cy="442.3" r="1.6" fill="#ECE7D6" opacity="0.53"/><circle cx="97.0" cy="52.3" r="2.4" fill="#ECE7D6" opacity="0.56"/><circle cx="137.0" cy="451.5" r="1.5" fill="#ECE7D6" opacity="0.73"/><circle cx="120.3" cy="87.0" r="2.2" fill="#ECE7D6" opacity="0.58"/><circle cx="3.6" cy="614.8" r="0.9" fill="#ECE7D6" opacity="0.69"/><circle cx="97.1" cy="497.3" r="1.3" fill="#ECE7D6" opacity="0.70"/><circle cx="328.7" cy="542.9" r="2.1" fill="#ECE7D6" opacity="0.49"/><circle cx="75.4" cy="115.9" r="1.1" fill="#ECE7D6" opacity="0.33"/><circle cx="298.2" cy="165.6" r="0.8" fill="#ECE7D6" opacity="0.47"/><circle cx="153.6" cy="118.2" r="2.3" fill="#ECE7D6" opacity="0.33"/><circle cx="157.5" cy="425.5" r="1.4" fill="#ECE7D6" opacity="0.77"/><circle cx="333.6" cy="583.7" r="1.6" fill="#ECE7D6" opacity="0.66"/><circle cx="363.7" cy="62.8" r="1.1" fill="#ECE7D6" opacity="0.57"/><circle cx="71.1" cy="274.8" r="0.9" fill="#ECE7D6" opacity="0.36"/><circle cx="434.7" cy="368.5" r="1.9" fill="#ECE7D6" opacity="0.72"/><circle cx="164.2" cy="425.0" r="1.1" fill="#ECE7D6" opacity="0.68"/><circle cx="136.0" cy="483.5" r="2.6" fill="#ECE7D6" opacity="0.63"/><circle cx="378.2" cy="656.9" r="0.7" fill="#ECE7D6" opacity="0.90"/><circle cx="365.0" cy="666.9" r="1.7" fill="#ECE7D6" opacity="0.37"/><circle cx="289.4" cy="493.2" r="0.8" fill="#ECE7D6" opacity="0.37"/><circle cx="213.1" cy="70.7" r="0.8" fill="#ECE7D6" opacity="0.69"/><circle cx="264.9" cy="126.0" r="1.0" fill="#ECE7D6" opacity="0.40"/><circle cx="324.3" cy="106.6" r="2.6" fill="#ECE7D6" opacity="0.34"/><circle cx="381.5" cy="442.3" r="1.7" fill="#ECE7D6" opacity="0.35"/><circle cx="232.7" cy="735.5" r="1.5" fill="#ECE7D6" opacity="0.38"/><circle cx="360.3" cy="724.7" r="0.9" fill="#ECE7D6" opacity="0.80"/><circle cx="236.5" cy="766.0" r="1.3" fill="#ECE7D6" opacity="0.40"/><circle cx="80.7" cy="360.1" r="2.0" fill="#ECE7D6" opacity="0.36"/><circle cx="329.8" cy="578.2" r="2.5" fill="#ECE7D6" opacity="0.45"/><circle cx="230.1" cy="598.5" r="2.1" fill="#ECE7D6" opacity="0.66"/><circle cx="151.7" cy="145.6" r="1.4" fill="#ECE7D6" opacity="0.39"/><circle cx="12.5" cy="25.7" r="0.7" fill="#ECE7D6" opacity="0.86"/><circle cx="393.7" cy="273.8" r="0.8" fill="#ECE7D6" opacity="0.69"/><circle cx="273.9" cy="380.7" r="1.3" fill="#ECE7D6" opacity="0.30"/><circle cx="383.2" cy="721.3" r="2.5" fill="#ECE7D6" opacity="0.59"/><circle cx="165.1" cy="543.2" r="1.4" fill="#ECE7D6" opacity="0.32"/><circle cx="206.1" cy="745.5" r="0.9" fill="#ECE7D6" opacity="0.86"/><circle cx="102.8" cy="74.4" r="1.3" fill="#ECE7D6" opacity="0.33"/></g>
      <g filter="url(#roughBig_midnight)"><circle cx="300" cy="220" r="92" fill="#ECE7D6"/><circle cx="338" cy="200" r="80" fill="#0A0E1C"/></g>
      <g filter="url(#rough_midnight)" fill="none" stroke-linecap="round"><path d="M -40 560 C 120 500, 280 600, 500 520" stroke="#2FE6E6" stroke-width="14" opacity="0.85"/><path d="M -40 620 C 140 680, 300 580, 500 660" stroke="#FF4D9D" stroke-width="12" opacity="0.8"/><path d="M -40 590 C 160 560, 300 640, 500 590" stroke="#7A5CFF" stroke-width="8" opacity="0.7"/></g>
      <g filter="url(#rough_midnight)" fill="#FF4D9D"><path d="M380.0,404.0L384.1,414.3L395.2,415.1L386.7,422.2L389.4,432.9L380.0,427.0L370.6,432.9L373.3,422.2L364.8,415.1L375.9,414.3Z" opacity="0.9"/></g>
      <g filter="url(#rough_midnight)" fill="#2FE6E6"><path d="M90.0,348.0L92.9,356.0L101.4,356.3L94.8,361.5L97.1,369.7L90.0,365.0L82.9,369.7L85.2,361.5L78.6,356.3L87.1,356.0Z" opacity="0.9"/></g><rect width="440" height="792" fill="#0A0E1C" opacity="0.45"/><rect width="440" height="792" filter="url(#paper_midnight)" opacity="0.1" style="mix-blend-mode:multiply"/></svg>