<svg xmlns="http://www.w3.org/2000/svg" viewBox="0 0 440 792" preserveAspectRatio="xMidYMid slice"><defs><filter id="rough_midnight" x="-25%" y="-25%" width="150%" height="150%"><feTurbulence type="fractalNoise" baseFrequency="0.016" numOctaves="3" seed="17" result="n"/><feDisplacementMap in="SourceGraphic" in2="n" scale="11" xChannelSelector="R" yChannelSelector="G"/></filter><filter id="roughBig_midnight" x="-30%" y="-30%" width="160%" height="160%"><feTurbulence type="fractalNoise" baseFrequency="0.009" numOctaves="2" seed="22" result="n"/><feDisplacementMap in="SourceGraphic" in2="n" scale="20" xChannelSelector="R" yChannelSelector="G"/></filter><filter id="ink_midnight"><feTurbulence type="fractalNoise" baseFrequency="0.7 0.9" numOctaves="2" seed="19" result="n"/><feColorMatrix in="n" type="matrix" values="0 0 0 0 0  0 0 0 0 0  0 0 0 0 0  0 0 0 0.5 0" result="a"/><feComposite in="a" in2="SourceAlpha" operator="in"/></filter><filter id="paper_midnight"><feTurbulence type="fractalNoise" baseFrequency="0.5" numOctaves="3" seed="26"/><feColorMatrix type="saturate" values="0"/><feComponentTransfer><feFuncA type="table" tableValues="0 0.7"/></feComponentTransfer></filter></defs><rect width="440" height="792" fill="#0A0E1C"/><g filter="url(#rough_midnight)"><circle cx="106.8" cy="187.1" r="1.5" fill="#ECE7D6" opacity="0.48"/><circle cx="314.2" cy="75.9" r="1.9" fill="#ECE7D6" opacity="0.43"/><circle cx="68.6" cy="127.3" r="1.6" fill="#ECE7D6" opacity="0.53"/><circle cx="97.0" cy="15.1" r="2.4" fill="#ECE7D6" opacity="0.56"/><circle cx="137.0" cy="130.0" r="1.5" fill="#ECE7D6" opacity="0.73"/><circle cx="120.3" cy="25.0" r="2.2" fill="#ECE7D6" opacity="0.58"/><circle cx="3.6" cy="177.0" r="0.9" fill="#ECE7D6" opacity="0.69"/><circle cx="97.1" cy="143.2" r="1.3" fill="#ECE7D6" opacity="0.70"/><circle cx="328.7" cy="156.3" r="2.1" fill="#ECE7D6" opacity="0.49"/><circle cx="75.4" cy="33.4" r="1.1" fill="#ECE7D6" opacity="0.33"/><circle cx="298.2" cy="47.7" r="0.8" fill="#ECE7D6" opacity="0.47"/><circle cx="153.6" cy="34.0" r="2.3" fill="#ECE7D6" opacity="0.33"/><circle cx="157.5" cy="122.5" r="1.4" fill="#ECE7D6" opacity="0.77"/><circle cx="333.6" cy="168.0" r="1.6" fill="#ECE7D6" opacity="0.66"/><circle cx="363.7" cy="18.1" r="1.1" fill="#ECE7D6" opacity="0.57"/><circle cx="71.1" cy="79.1" r="0.9" fill="#ECE7D6" opacity="0.36"/><circle cx="434.7" cy="106.1" r="1.9" fill="#ECE7D6" opacity="0.72"/><circle cx="164.2" cy="122.4" r="1.1" fill="#ECE7D6" opacity="0.68"/><circle cx="136.0" cy="139.2" r="2.6" fill="#ECE7D6" opacity="0.63"/><circle cx="378.2" cy="189.1" r="0.7" fill="#ECE7D6" opacity="0.90"/><circle cx="365.0" cy="192.0" r="1.7" fill="#ECE7D6" opacity="0.37"/><circle cx="289.4" cy="142.0" r="0.8" fill="#ECE7D6" opacity="0.37"/><circle cx="213.1" cy="20.4" r="0.8" fill="#ECE7D6" opacity="0.69"/><circle cx="264.9" cy="36.3" r="1.0" fill="#ECE7D6" opacity="0.40"/><circle cx="324.3" cy="30.7" r="2.6" fill="#ECE7D6" opacity="0.34"/><circle cx="381.5" cy="127.3" r="1.7" fill="#ECE7D6" opacity="0.35"/><circle cx="232.7" cy="211.7" r="1.5" fill="#ECE7D6" opacity="0.38"/><circle cx="360.3" cy="208.6" r="0.9" fill="#ECE7D6" opacity="0.80"/></g><g filter="url(#roughBig_midnight)"><circle cx="332" cy="92" r="62" fill="#ECE7D6"/><circle cx="362" cy="74" r="52" fill="#0A0E1C"/></g><g filter="url(#rough_midnight)" fill="none" stroke-linecap="round"><path d="M -40 198 C 120 150, 280 230, 500 166" stroke="#2FE6E6" stroke-width="12" opacity="0.85"/><path d="M -40 224 C 140 248, 300 196, 500 238" stroke="#FF4D9D" stroke-width="10" opacity="0.8"/></g><g filter="url(#rough_midnight)" fill="#FF4D9D"><path d="M142.0,109.0L145.5,117.1L154.4,118.0L147.7,123.9L149.6,132.5L142.0,128.0L134.4,132.5L136.3,123.9L129.6,118.0L138.5,117.1Z"/></g><g filter="url(#rough_midnight)" fill="#2FE6E6"><path d="M92.0,60.0L94.4,66.8L101.5,66.9L95.8,71.2L97.9,78.1L92.0,74.0L86.1,78.1L88.2,71.2L82.5,66.9L89.6,66.8Z"/></g><rect width="440" height="792" filter="url(#paper_midnight)" opacity="0.08" style="mix-blend-mode:multiply"/></svg>