<svg xmlns="http://www.w3.org/2000/svg" viewBox="0 0 440 792" preserveAspectRatio="xMidYMid slice"><defs><filter id="rough_wind" x="-25%" y="-25%" width="150%" height="150%"><feTurbulence type="fractalNoise" baseFrequency="0.016" numOctaves="3" seed="17" result="n"/><feDisplacementMap in="SourceGraphic" in2="n" scale="11" xChannelSelector="R" yChannelSelector="G"/></filter><filter id="roughBig_wind" x="-30%" y="-30%" width="160%" height="160%"><feTurbulence type="fractalNoise" baseFrequency="0.009" numOctaves="2" seed="22" result="n"/><feDisplacementMap in="SourceGraphic" in2="n" scale="20" xChannelSelector="R" yChannelSelector="G"/></filter><filter id="ink_wind"><feTurbulence type="fractalNoise" baseFrequency="0.7 0.9" numOctaves="2" seed="19" result="n"/><feColorMatrix in="n" type="matrix" values="0 0 0 0 0  0 0 0 0 0  0 0 0 0 0  0 0 0 0.5 0" result="a"/><feComposite in="a" in2="SourceAlpha" operator="in"/></filter><filter id="paper_wind"><feTurbulence type="fractalNoise" baseFrequency="0.5" numOctaves="3" seed="26"/><feColorMatrix type="saturate" values="0"/><feComponentTransfer><feFuncA type="table" tableValues="0 0.7"/></feComponentTransfer></filter></defs><rect width="440" height="792" fill="#E3EEEF"/><g filter="url(#rough_wind)"><path d="M-30 46 C 90 22, 220 70, 380 36" fill="none" stroke="#3E8C99" stroke-width="9" stroke-linecap="round" opacity="0.26"/><path d="M-30 92 C 90 68, 220 116, 380 82" fill="none" stroke="#3E8C99" stroke-width="5" stroke-linecap="round" opacity="0.36"/><path d="M-30 138 C 90 114, 220 162, 380 128" fill="none" stroke="#3E8C99" stroke-width="9" stroke-linecap="round" opacity="0.46"/><path d="M-30 184 C 90 160, 220 208, 380 174" fill="none" stroke="#3E8C99" stroke-width="5" stroke-linecap="round" opacity="0.56"/></g><g filter="url(#rough_wind)"><g transform="rotate(82.7 101.9 178.8)"><ellipse cx="101.9" cy="178.8" rx="9" ry="3.4" fill="#2E7D8C" opacity="0.4"/></g><g transform="rotate(59.9 124.8 157.9)"><ellipse cx="124.8" cy="157.9" rx="9" ry="3.4" fill="#2E7D8C" opacity="0.4"/></g><g transform="rotate(28.1 282.0 60.1)"><ellipse cx="282.0" cy="60.1" rx="9" ry="3.4" fill="#2E7D8C" opacity="0.4"/></g><g transform="rotate(68.3 234.5 118.0)"><ellipse cx="234.5" cy="118.0" rx="9" ry="3.4" fill="#2E7D8C" opacity="0.4"/></g><g transform="rotate(159.9 92.6 30.9)"><ellipse cx="92.6" cy="30.9" rx="9" ry="3.4" fill="#2E7D8C" opacity="0.4"/></g><g transform="rotate(102.6 184.1 79.0)"><ellipse cx="184.1" cy="79.0" rx="9" ry="3.4" fill="#2E7D8C" opacity="0.4"/></g><g transform="rotate(49.2 193.2 159.1)"><ellipse cx="193.2" cy="159.1" rx="9" ry="3.4" fill="#2E7D8C" opacity="0.4"/></g><g transform="rotate(83.9 46.1 173.7)"><ellipse cx="46.1" cy="173.7" rx="9" ry="3.4" fill="#2E7D8C" opacity="0.4"/></g><g transform="rotate(31.0 3.4 170.1)"><ellipse cx="3.4" cy="170.1" rx="9" ry="3.4" fill="#2E7D8C" opacity="0.4"/></g><g transform="rotate(113.0 274.1 61.2)"><ellipse cx="274.1" cy="61.2" rx="9" ry="3.4" fill="#2E7D8C" opacity="0.4"/></g></g><g filter="url(#roughBig_wind)"><circle cx="322" cy="94" r="42" fill="#2E7D8C"/><circle cx="322" cy="94" r="42" fill="none" stroke="#0A2E34" stroke-width="5"/></g><g filter="url(#rough_wind)"><circle cx="322" cy="94" r="34" fill="none" stroke="#7FB3BC" stroke-width="5" opacity="0.55" stroke-dasharray="51 37"/><circle cx="322" cy="94" r="52" fill="none" stroke="#7FB3BC" stroke-width="4" opacity="0.40" stroke-dasharray="78 57"/><circle cx="322" cy="94" r="72" fill="none" stroke="#7FB3BC" stroke-width="3" opacity="0.25" stroke-dasharray="108 79"/></g><text x="322" y="110" text-anchor="middle" font-family="'Bricolage Grotesque',sans-serif" font-weight="800" font-size="48" fill="#EAF2F3">風</text><rect width="440" height="792" filter="url(#paper_wind)" opacity="0.08" style="mix-blend-mode:multiply"/></svg>