<svg xmlns="http://www.w3.org/2000/svg" width="150" height="150" viewBox="0 0 150 150">
  <g stroke="none">
    <polygon points="34,18 39,31 53,31 42,40 46,53 34,45 22,53 26,40 15,31 29,31" fill="#7C4DE0" fill-opacity="0.1"/>
    <polygon points="112,92 117,105 131,105 120,114 124,127 112,119 100,127 104,114 93,105 107,105" fill="#F5478B" fill-opacity="0.1"/>
    <polygon points="118,28 121,37 130,37 123,43 125,52 118,47 111,52 113,43 106,37 115,37" fill="#18C39A" fill-opacity="0.12"/>
    <polygon points="32,108 35,117 44,117 37,123 39,132 32,127 25,132 27,123 20,117 29,117" fill="#3E8BFF" fill-opacity="0.12"/>
  </g>
</svg>
